<?xml version="1.0" encoding="UTF-8"?>
<!DOCTYPE svg PUBLIC "-//W3C//DTD SVG 1.1//EN" "http://www.w3.org/Graphics/SVG/1.1/DTD/svg11.dtd">
<!-- Creator: CorelDRAW X8 -->
<svg xmlns="http://www.w3.org/2000/svg" xml:space="preserve" width="4.3mm" height="4.3mm" version="1.1" style="shape-rendering:geometricPrecision; text-rendering:geometricPrecision; image-rendering:optimizeQuality; fill-rule:evenodd; clip-rule:evenodd"
viewBox="0 0 430 430"
 xmlns:xlink="http://www.w3.org/1999/xlink">
 <defs>
  <style type="text/css">
   <![CDATA[
    .fil0 {fill:white}
    .fil1 {fill:url(#id0)}
   ]]>
  </style>
  <linearGradient id="id0" gradientUnits="userSpaceOnUse" x1="353.08" y1="368.39" x2="77.86" y2="42.01">
   <stop offset="0" style="stop-opacity:1; stop-color:#A12BFF"/>
   <stop offset="0.419608" style="stop-opacity:1; stop-color:#6877F1"/>
   <stop offset="1" style="stop-opacity:1; stop-color:#2EC3E3"/>
  </linearGradient>
 </defs>
 <g id="Capa_x0020_1">
  <metadata id="CorelCorpID_0Corel-Layer"/>
  <g id="_1964922629504">
   <circle class="fil0" cx="215" cy="215" r="213"/>
   <path class="fil1" d="M153 418c6,-5 4,-21 4,-48 -5,0 -15,1 -27,1 -42,0 -45,-21 -55,-39 -10,-18 -25,-20 -27,-29 14,-7 32,5 40,15 13,17 19,32 53,27 7,-1 11,-3 17,-5 0,-15 7,-20 13,-29l-22 -4c-56,-12 -80,-46 -80,-101 0,-12 3,-24 7,-33 2,-4 4,-9 7,-13 11,-16 10,-6 6,-22 -3,-16 1,-47 8,-47 10,0 22,4 31,8 9,3 15,7 23,12 8,5 11,0 28,-2l49 -2c5,0 11,1 16,2 17,2 20,7 28,2 16,-10 34,-20 54,-20 4,0 6,10 7,14 7,24 -2,36 -2,43 0,2 7,9 8,11 19,24 17,64 8,90 -9,26 -26,42 -52,52 -14,6 -29,7 -43,10 5,8 9,10 12,21 6,19 0,70 3,81 1,3 3,5 5,7 90,-25 156,-108 156,-205 0,-106 -78,-194 -179,-210 -12,-2 -23,-3 -34,-3 -118,0 -213,95 -213,213 0,96 64,177 151,203z"/>
  </g>
 </g>
</svg>
