<?xml version="1.0" encoding="UTF-8"?>
<!DOCTYPE svg PUBLIC "-//W3C//DTD SVG 1.1//EN" "http://www.w3.org/Graphics/SVG/1.1/DTD/svg11.dtd">
<!-- Creator: CorelDRAW X8 -->
<svg xmlns="http://www.w3.org/2000/svg" xml:space="preserve" width="50mm" height="50mm" version="1.1" style="shape-rendering:geometricPrecision; text-rendering:geometricPrecision; image-rendering:optimizeQuality; fill-rule:evenodd; clip-rule:evenodd"
viewBox="0 0 5000 5000"
 xmlns:xlink="http://www.w3.org/1999/xlink">
 <defs>
  <style type="text/css">
   <![CDATA[
    .fil1 {fill:white}
    .fil0 {fill:url(#id0)}
   ]]>
  </style>
  <linearGradient id="id0" gradientUnits="userSpaceOnUse" x1="4142.02" y1="4320.35" x2="868.89" y2="526.08">
   <stop offset="0" style="stop-opacity:1; stop-color:#A12BFF"/>
   <stop offset="0.419608" style="stop-opacity:1; stop-color:#6877F1"/>
   <stop offset="1" style="stop-opacity:1; stop-color:#2EC3E3"/>
  </linearGradient>
 </defs>
 <g id="Capa_x0020_1">
  <metadata id="CorelCorpID_0Corel-Layer"/>
  <g id="_2631141624592">
   <ellipse class="fil0" cx="2500" cy="2490" rx="2475" ry="2465"/>
   <path class="fil1" d="M3572 1702c-193,0 -370,104 -522,194 -81,47 -115,7 -274,-19 -52,-8 -111,-13 -159,-18l-481 18c-166,27 -191,67 -273,19 -77,-45 -140,-81 -228,-117 -82,-33 -196,-77 -294,-77 -76,0 -110,306 -78,458 34,160 49,61 -62,216 -25,36 -52,87 -69,129 -37,88 -64,204 -64,323 0,530 235,866 779,985l218 36c-63,89 -137,139 -137,285 -56,13 -95,35 -157,45 -337,50 -392,-100 -519,-262 -79,-102 -261,-219 -396,-150 26,94 167,110 266,283 101,174 129,386 534,386 120,0 220,-16 264,-16 0,255 18,408 -28,468 189,57 390,87 598,87 191,0 375,-26 551,-74 -20,-12 -35,-32 -43,-61 -29,-106 25,-606 -28,-790 -29,-103 -70,-126 -122,-201 142,-32 283,-41 422,-94 256,-97 420,-259 507,-509 90,-258 105,-646 -72,-879 -16,-21 -82,-89 -82,-110 0,-69 85,-183 18,-417 -10,-36 -23,-138 -69,-138z"/>
  </g>
 </g>
</svg>
