<?xml version="1.0" encoding="UTF-8"?>
<!DOCTYPE svg PUBLIC "-//W3C//DTD SVG 1.1//EN" "http://www.w3.org/Graphics/SVG/1.1/DTD/svg11.dtd">
<!-- Creator: CorelDRAW X8 -->
<svg xmlns="http://www.w3.org/2000/svg" xml:space="preserve" width="40mm" height="40mm" version="1.1" style="shape-rendering:geometricPrecision; text-rendering:geometricPrecision; image-rendering:optimizeQuality; fill-rule:evenodd; clip-rule:evenodd"
viewBox="0 0 4000 4000"
 xmlns:xlink="http://www.w3.org/1999/xlink">
 <defs>
  <style type="text/css">
   <![CDATA[
    .fil0 {fill:white}
   ]]>
  </style>
 </defs>
 <g id="Capa_x0020_1">
  <metadata id="CorelCorpID_0Corel-Layer"/>
  <path class="fil0" d="M2983 693c-155,0 -297,83 -420,156 -65,37 -92,5 -220,-16 -42,-6 -89,-10 -128,-14l-386 14c-134,22 -154,54 -220,16 -62,-36 -112,-65 -183,-94 -66,-27 -158,-62 -236,-62 -61,0 -89,246 -63,368 27,128 39,49 -50,173 -20,29 -42,70 -55,104 -30,71 -52,164 -52,260 0,426 189,696 626,792l176 28c-51,72 -111,112 -111,230 -45,10 -76,28 -126,36 -271,40 -315,-81 -417,-211 -63,-82 -210,-176 -318,-120 21,75 134,88 214,227 81,140 103,310 429,310 96,0 177,-13 212,-13 0,198 14,320 -18,371 155,39 317,59 484,59 148,0 292,-16 430,-46 -13,-10 -24,-25 -29,-46 -24,-85 20,-487 -23,-635 -23,-83 -56,-101 -98,-162 114,-25 227,-32 339,-75 206,-78 338,-208 408,-409 72,-208 84,-519 -58,-707 -13,-17 -66,-71 -66,-88 0,-56 68,-147 14,-335 -8,-29 -18,-111 -55,-111z"/>
 </g>
</svg>
