<?xml version="1.0" encoding="UTF-8"?>
<!DOCTYPE svg PUBLIC "-//W3C//DTD SVG 1.1//EN" "http://www.w3.org/Graphics/SVG/1.1/DTD/svg11.dtd">
<!-- Creator: CorelDRAW X8 -->
<svg xmlns="http://www.w3.org/2000/svg" xml:space="preserve" width="50mm" height="50mm" version="1.1" style="shape-rendering:geometricPrecision; text-rendering:geometricPrecision; image-rendering:optimizeQuality; fill-rule:evenodd; clip-rule:evenodd"
viewBox="0 0 5000 5000"
 xmlns:xlink="http://www.w3.org/1999/xlink">
 <defs>
  <style type="text/css">
   <![CDATA[
    .fil1 {fill:#FEFEFE}
    .fil2 {fill:white}
    .fil0 {fill:url(#id0)}
   ]]>
  </style>
  <linearGradient id="id0" gradientUnits="userSpaceOnUse" x1="4125.4" y1="4319.34" x2="885.33" y2="548.06">
   <stop offset="0" style="stop-opacity:1; stop-color:#A12BFF"/>
   <stop offset="0.419608" style="stop-opacity:1; stop-color:#6877F1"/>
   <stop offset="1" style="stop-opacity:1; stop-color:#2EC3E3"/>
  </linearGradient>
 </defs>
 <g id="Capa_x0020_1">
  <metadata id="CorelCorpID_0Corel-Layer"/>
  <circle class="fil0" cx="2500" cy="2500" r="2450"/>
  <path class="fil1" d="M2753 1999l-574 -7 12 1708 553 -3c12,-268 -34,-835 9,-1052 66,-334 546,-359 570,-19l27 1071 568 1c20,-278 27,-892 -1,-1163 -37,-348 -242,-562 -570,-608 -303,-15 -450,75 -589,241l-5 -169z"/>
  <polygon class="fil1" points="1280,3699 1844,3698 1847,1979 1378,1978 1287,1980 "/>
  <circle class="fil2" cx="1548" cy="1426" r="300"/>
 </g>
</svg>
