<?xml version="1.0" encoding="UTF-8"?>
<!DOCTYPE svg PUBLIC "-//W3C//DTD SVG 1.1//EN" "http://www.w3.org/Graphics/SVG/1.1/DTD/svg11.dtd">
<!-- Creator: CorelDRAW X8 -->
<svg xmlns="http://www.w3.org/2000/svg" xml:space="preserve" width="144mm" height="31mm" version="1.1" style="shape-rendering:geometricPrecision; text-rendering:geometricPrecision; image-rendering:optimizeQuality; fill-rule:evenodd; clip-rule:evenodd"
viewBox="0 0 14400 3100"
 xmlns:xlink="http://www.w3.org/1999/xlink">
 <defs>
  <style type="text/css">
   <![CDATA[
    .fil1 {fill:#1A1A1A;fill-rule:nonzero}
    .fil0 {fill:url(#id0);fill-rule:nonzero}
   ]]>
  </style>
  <linearGradient id="id0" gradientUnits="userSpaceOnUse" x1="3768.93" y1="3193.08" x2="2125.65" y2="-177.11">
   <stop offset="0" style="stop-opacity:1; stop-color:#A12BFF"/>
   <stop offset="0.419608" style="stop-opacity:1; stop-color:#6877F1"/>
   <stop offset="1" style="stop-opacity:1; stop-color:#2EC3E3"/>
  </linearGradient>
 </defs>
 <g id="Capa_x0020_1">
  <metadata id="CorelCorpID_0Corel-Layer"/>
  <g id="_2083746691520">
   <path class="fil0" d="M1712 21c-1013,23 -1709,1115 -1684,2167 11,468 299,894 725,884 539,-13 807,-569 1444,-584 740,-18 1226,609 1976,591 1013,-23 1709,-1115 1684,-2167 -11,-468 -299,-894 -725,-884 -592,14 -664,553 -1490,572 -734,18 -1183,-597 -1930,-579z"/>
   <path class="fil1" d="M11207 1200c123,0 184,-42 184,-126 0,-25 -5,-47 -16,-66 -11,-18 -26,-34 -44,-47 -19,-13 -40,-25 -64,-34 -24,-10 -49,-20 -76,-30 -30,-10 -59,-22 -87,-35 -27,-14 -51,-29 -71,-47 -20,-19 -36,-40 -48,-65 -12,-25 -18,-56 -18,-91 0,-74 25,-131 75,-172 51,-41 120,-62 208,-62 50,0 97,5 138,16 42,11 72,23 92,36l-38 96c-17,-11 -42,-21 -75,-31 -34,-10 -73,-15 -117,-15 -23,0 -44,2 -63,7 -20,5 -37,12 -51,22 -15,10 -26,22 -35,37 -8,15 -13,32 -13,52 0,23 5,42 14,57 9,16 21,29 37,41 17,12 35,22 57,32 21,10 45,20 71,29 36,15 69,29 100,44 30,14 56,32 78,52 22,20 40,44 52,72 12,28 18,62 18,101 0,74 -27,130 -81,170 -53,39 -129,59 -227,59 -33,0 -63,-2 -91,-7 -28,-4 -53,-9 -75,-15 -22,-6 -40,-13 -56,-20 -16,-7 -28,-12 -37,-17l35 -97c19,10 47,22 85,35 38,13 84,19 139,19z"/>
   <path class="fil1" d="M10750 1284c-13,-36 -26,-72 -38,-107 -12,-35 -25,-71 -38,-107l-380 0 -77 214 -122 0c32,-89 63,-171 91,-247 28,-75 56,-147 83,-215 27,-67 54,-132 80,-194 27,-62 55,-123 84,-184l108 0c29,61 57,122 83,184 27,62 54,127 81,194 27,68 55,140 83,215 28,76 59,158 91,247l-129 0zm-110 -311c-26,-71 -51,-139 -77,-205 -25,-65 -52,-129 -79,-189 -28,60 -55,124 -81,189 -25,66 -50,134 -75,205l312 0z"/>
   <polygon class="fil1" points="10032,1182 10032,1284 9527,1284 9527,444 9644,444 9644,1182 "/>
   <path class="fil1" d="M8550 864c0,-72 11,-136 32,-191 22,-55 51,-100 88,-137 36,-37 79,-65 128,-83 49,-19 101,-28 156,-28 54,0 105,9 153,28 48,18 90,46 127,83 36,37 65,82 86,137 22,55 32,119 32,191 0,71 -10,135 -32,190 -21,55 -50,101 -86,137 -37,37 -79,65 -127,83 -48,19 -99,28 -153,28 -55,0 -107,-9 -156,-28 -49,-18 -92,-46 -128,-83 -37,-36 -66,-82 -88,-137 -21,-55 -32,-119 -32,-190zm124 0c0,50 6,97 19,138 13,42 32,77 55,106 24,29 53,52 88,68 34,15 73,23 115,23 43,0 82,-8 115,-23 34,-16 63,-39 87,-68 24,-29 42,-64 55,-106 13,-41 20,-88 20,-138 0,-51 -7,-98 -20,-139 -13,-42 -31,-77 -55,-106 -24,-29 -53,-52 -87,-67 -33,-16 -72,-24 -115,-24 -42,0 -81,8 -115,24 -35,15 -64,38 -88,67 -23,29 -42,64 -55,106 -13,41 -19,88 -19,139z"/>
   <path class="fil1" d="M8218 1302c-59,0 -112,-10 -161,-29 -48,-19 -90,-48 -125,-85 -34,-37 -61,-83 -80,-137 -19,-55 -29,-117 -29,-187 0,-71 11,-133 33,-188 21,-54 50,-100 86,-137 37,-37 79,-66 127,-85 49,-19 101,-29 155,-29 35,0 66,2 94,7 28,5 52,11 73,17 21,7 37,13 50,20 13,6 22,11 27,14l-34 97c-7,-5 -18,-10 -31,-16 -14,-5 -30,-11 -47,-17 -17,-5 -36,-10 -57,-14 -21,-3 -41,-5 -62,-5 -45,0 -85,8 -120,23 -36,15 -66,38 -91,67 -25,29 -44,64 -58,106 -13,41 -20,88 -20,140 0,50 6,95 18,136 12,42 29,77 53,106 23,30 52,53 87,69 35,16 76,24 123,24 54,0 99,-6 135,-17 35,-11 62,-21 80,-30l30 97c-6,4 -16,9 -30,15 -15,6 -33,12 -55,18 -22,5 -47,10 -76,14 -29,4 -61,6 -95,6z"/>
   <polygon class="fil1" points="7531,444 7649,444 7649,1284 7531,1284 "/>
   <path class="fil1" d="M7225 1284c-18,-30 -38,-63 -61,-101 -23,-37 -48,-75 -75,-115 -26,-40 -54,-81 -83,-122 -28,-41 -57,-81 -85,-119 -28,-39 -56,-75 -83,-109 -26,-34 -51,-64 -73,-89l0 655 -116 0 0 -840 94 0c38,41 78,88 122,142 43,53 86,109 128,166 42,56 82,112 120,167 37,55 69,104 95,147l0 -622 115 0 0 840 -98 0z"/>
   <polygon class="fil1" points="10177,2555 10177,2657 9672,2657 9672,1817 9790,1817 9790,2555 "/>
   <polygon class="fil1" points="8980,2657 8980,1817 9493,1817 9493,1918 9098,1918 9098,2167 9449,2167 9449,2266 9098,2266 9098,2556 9523,2556 9523,2657 "/>
   <polygon class="fil1" points="8857,1817 8857,1919 8593,1919 8593,2657 8475,2657 8475,1919 8211,1919 8211,1817 "/>
   <path class="fil1" d="M7352 2236c0,-71 11,-135 32,-190 22,-55 51,-101 88,-137 36,-37 79,-65 128,-83 49,-19 101,-28 156,-28 54,0 105,9 153,28 48,18 90,46 126,83 37,36 66,82 87,137 21,55 32,119 32,190 0,72 -11,136 -32,191 -21,55 -50,100 -87,137 -36,37 -78,65 -126,83 -48,19 -99,28 -153,28 -55,0 -107,-9 -156,-28 -49,-18 -92,-46 -128,-83 -37,-37 -66,-82 -88,-137 -21,-55 -32,-119 -32,-191zm124 0c0,51 6,98 19,139 13,42 31,77 55,106 24,29 53,52 87,67 35,16 73,24 116,24 43,0 81,-8 115,-24 34,-15 63,-38 87,-67 24,-29 42,-64 55,-106 13,-41 19,-88 19,-139 0,-50 -6,-97 -19,-138 -13,-42 -31,-77 -55,-106 -24,-29 -53,-52 -87,-67 -34,-16 -72,-24 -115,-24 -43,0 -81,8 -116,24 -34,15 -63,38 -87,67 -24,29 -42,64 -55,106 -13,41 -19,88 -19,138z"/>
   <path class="fil1" d="M6872 1809c118,0 209,22 272,67 64,45 96,112 96,201 0,48 -9,89 -27,124 -17,34 -42,62 -75,83 -32,22 -72,37 -119,47 -47,10 -100,15 -159,15l-93 0 0 311 -118 0 0 -828c34,-8 71,-13 111,-16 41,-3 78,-4 112,-4zm10 103c-50,0 -88,1 -115,3l0 330 88 0c41,0 77,-3 110,-8 32,-5 59,-14 81,-27 22,-12 40,-29 52,-51 12,-22 18,-50 18,-84 0,-32 -6,-59 -19,-80 -12,-21 -29,-37 -51,-50 -21,-12 -46,-21 -74,-26 -29,-5 -58,-7 -90,-7z"/>
   <polygon class="fil1" points="14373,1817 14373,1919 14109,1919 14109,2657 13991,2657 13991,1919 13727,1919 13727,1817 "/>
   <path class="fil1" d="M12868 2236c0,-71 11,-135 32,-190 22,-55 51,-101 88,-137 36,-37 79,-65 128,-83 49,-19 101,-28 156,-28 54,0 105,9 153,28 48,18 90,46 127,83 36,36 65,82 86,137 22,55 32,119 32,190 0,72 -10,136 -32,191 -21,55 -50,100 -86,137 -37,37 -79,65 -127,83 -48,19 -99,28 -153,28 -55,0 -107,-9 -156,-28 -49,-18 -92,-46 -128,-83 -37,-37 -66,-82 -88,-137 -21,-55 -32,-119 -32,-191zm124 0c0,51 6,98 19,139 13,42 31,77 55,106 24,29 53,52 88,67 34,16 72,24 115,24 43,0 81,-8 115,-24 34,-15 63,-38 87,-67 24,-29 42,-64 55,-106 13,-41 19,-88 19,-139 0,-50 -6,-97 -19,-138 -13,-42 -31,-77 -55,-106 -24,-29 -53,-52 -87,-67 -34,-16 -72,-24 -115,-24 -43,0 -81,8 -115,24 -35,15 -64,38 -88,67 -24,29 -42,64 -55,106 -13,41 -19,88 -19,138z"/>
   <path class="fil1" d="M12596 2657c-18,-30 -39,-64 -62,-101 -23,-37 -47,-75 -74,-115 -27,-40 -54,-81 -83,-122 -29,-41 -57,-81 -85,-119 -29,-39 -56,-75 -83,-109 -27,-34 -51,-64 -74,-90l0 656 -115 0 0 -840 93 0c38,41 79,88 122,141 43,54 86,109 129,166 42,57 82,113 120,168 37,55 69,104 95,147l0 -622 115 0 0 840 -98 0z"/>
   <path class="fil1" d="M11499 2675c-55,0 -102,-8 -143,-25 -40,-17 -73,-41 -99,-70 -26,-30 -45,-64 -58,-105 -12,-40 -18,-84 -18,-131l0 -527 117 0 0 514c0,84 19,145 56,183 37,38 85,57 145,57 30,0 57,-5 82,-14 25,-9 46,-24 64,-43 17,-19 31,-44 41,-75 9,-30 14,-66 14,-108l0 -514 118 0 0 527c0,47 -6,91 -19,131 -12,41 -32,75 -58,105 -26,29 -59,53 -99,70 -40,17 -88,25 -143,25z"/>
   <path class="fil1" d="M10867 1923l-299 0 0 -106 299 0 117 0 0 122 0 448c0,40 -4,78 -12,112 -9,35 -24,66 -45,92 -22,26 -50,47 -86,62 -36,15 -81,22 -135,22 -28,0 -53,-2 -76,-7 -23,-4 -44,-10 -62,-17 -19,-6 -35,-14 -49,-21 -14,-8 -25,-16 -33,-23l46 -93c17,12 39,25 66,38 27,13 61,20 102,20 58,0 100,-15 127,-44 26,-30 40,-80 40,-152l0 -453z"/>
  </g>
 </g>
</svg>
