<?xml version="1.0" encoding="UTF-8"?>
<!DOCTYPE svg PUBLIC "-//W3C//DTD SVG 1.1//EN" "http://www.w3.org/Graphics/SVG/1.1/DTD/svg11.dtd">
<!-- Creator: CorelDRAW X8 -->
<svg xmlns="http://www.w3.org/2000/svg" xml:space="preserve" width="156.709mm" height="24.108mm" version="1.1" style="shape-rendering:geometricPrecision; text-rendering:geometricPrecision; image-rendering:optimizeQuality; fill-rule:evenodd; clip-rule:evenodd"
viewBox="0 0 15671 2411"
 xmlns:xlink="http://www.w3.org/1999/xlink">
 <defs>
  <style type="text/css">
   <![CDATA[
    .fil0 {fill:#333333;fill-rule:nonzero}
    .fil1 {fill:url(#id0);fill-rule:nonzero}
   ]]>
  </style>
  <linearGradient id="id0" gradientUnits="userSpaceOnUse" x1="2944.03" y1="2516.3" x2="1540.03" y2="-173.574">
   <stop offset="0" style="stop-opacity:1; stop-color:#A12BFF"/>
   <stop offset="0.419608" style="stop-opacity:1; stop-color:#6877F1"/>
   <stop offset="1" style="stop-opacity:1; stop-color:#2EC3E3"/>
  </linearGradient>
 </defs>
 <g id="Capa_x0020_1">
  <metadata id="CorelCorpID_0Corel-Layer"/>
  <path class="fil0" d="M5467 928c-14,-24 -31,-51 -50,-82 -18,-30 -39,-61 -61,-94 -21,-33 -44,-66 -67,-99 -24,-34 -47,-66 -70,-98 -23,-31 -45,-60 -67,-88 -22,-28 -42,-52 -60,-73l0 534 -94 0 0 -685 76 0c31,33 64,72 99,116 35,43 70,89 105,135 35,46 67,92 98,137 30,45 56,85 77,120l0 -508 94 0 0 685 -80 0zm7285 -598l-244 0 0 -87 244 0 96 0 0 100 0 365c0,33 -4,64 -11,92 -7,28 -19,53 -36,75 -18,21 -41,38 -70,50 -30,12 -67,18 -111,18 -22,0 -43,-2 -61,-5 -19,-4 -36,-8 -51,-14 -16,-6 -29,-12 -40,-18 -11,-6 -20,-12 -27,-18l38 -76c14,10 32,20 54,31 22,11 49,16 82,16 48,0 82,-12 104,-36 22,-24 33,-65 33,-124l0 -369zm-7035 -87l96 0 0 685 -96 0 0 -685zm561 700c-48,0 -92,-8 -132,-23 -39,-16 -73,-39 -102,-70 -28,-30 -50,-67 -65,-112 -16,-44 -24,-95 -24,-153 0,-57 9,-108 27,-152 17,-45 41,-82 70,-112 30,-31 65,-54 104,-70 40,-15 82,-23 127,-23 28,0 54,2 76,6 23,4 43,8 60,13 16,6 30,11 41,16 10,6 17,9 21,12l-27 79c-6,-4 -15,-8 -26,-13 -11,-4 -24,-9 -38,-14 -14,-4 -30,-8 -47,-11 -16,-3 -33,-4 -50,-4 -37,0 -69,6 -98,18 -29,13 -54,31 -74,55 -21,24 -37,52 -47,86 -11,34 -17,72 -17,114 0,41 5,79 15,112 9,34 23,63 43,87 19,24 43,42 71,55 29,14 62,20 101,20 44,0 80,-4 109,-14 29,-9 51,-17 66,-24l24 79c-4,3 -13,7 -24,12 -12,5 -27,10 -45,14 -18,5 -38,9 -62,12 -24,4 -50,5 -77,5zm271 -358c0,-58 8,-110 26,-155 17,-45 41,-82 71,-112 30,-30 65,-52 105,-68 40,-15 82,-22 127,-22 44,0 85,7 125,22 39,16 73,38 103,68 30,30 53,67 71,112 17,45 26,97 26,155 0,59 -9,111 -26,156 -18,44 -41,82 -71,112 -30,30 -64,52 -103,68 -40,15 -81,22 -125,22 -45,0 -87,-7 -127,-22 -40,-16 -75,-38 -105,-68 -30,-30 -54,-68 -71,-112 -18,-45 -26,-97 -26,-156zm100 0c0,42 6,80 16,114 11,34 26,62 45,86 20,24 43,42 71,55 28,13 60,19 95,19 35,0 66,-6 94,-19 27,-13 51,-31 70,-55 20,-24 35,-52 45,-86 11,-34 16,-72 16,-114 0,-41 -5,-79 -16,-113 -10,-34 -25,-62 -45,-86 -19,-24 -43,-42 -70,-55 -28,-13 -59,-19 -94,-19 -35,0 -67,6 -95,19 -28,13 -51,31 -71,55 -19,24 -34,52 -45,86 -10,34 -16,72 -16,113zm1108 260l0 83 -412 0 0 -685 96 0 0 602 316 0zm586 83c-11,-29 -21,-58 -31,-87 -10,-29 -20,-58 -31,-88l-310 0 -62 175 -100 0c26,-72 51,-139 74,-201 23,-61 45,-120 68,-175 22,-55 44,-108 65,-159 22,-50 45,-100 68,-150l88 0c24,50 47,100 69,150 21,51 43,104 65,159 22,55 45,114 68,175 23,62 48,129 74,201l-105 0zm-89 -254c-22,-57 -42,-112 -63,-166 -21,-54 -43,-105 -65,-155 -23,50 -45,101 -66,155 -20,54 -41,109 -61,166l255 0zm462 186c100,0 150,-34 150,-103 0,-21 -4,-39 -13,-53 -9,-15 -21,-28 -36,-39 -15,-11 -33,-20 -52,-28 -19,-8 -40,-16 -62,-24 -25,-8 -49,-18 -71,-29 -22,-11 -42,-24 -58,-39 -17,-14 -30,-32 -39,-52 -10,-21 -15,-46 -15,-75 0,-60 21,-106 62,-140 41,-34 97,-50 169,-50 41,0 79,4 113,13 34,9 59,19 74,29l-30 78c-14,-8 -35,-17 -62,-25 -27,-8 -59,-12 -95,-12 -19,0 -36,2 -52,6 -16,4 -29,9 -41,17 -12,8 -21,18 -28,31 -7,12 -11,26 -11,43 0,18 4,33 11,46 7,13 18,24 31,33 13,10 28,18 46,26 17,8 36,16 58,24 29,12 56,24 81,36 25,11 46,26 64,42 18,17 32,36 42,59 10,23 15,50 15,82 0,60 -22,107 -66,139 -43,32 -105,48 -185,48 -27,0 -52,-2 -75,-5 -22,-4 -43,-8 -60,-13 -18,-5 -33,-10 -46,-16 -13,-5 -23,-10 -30,-14l28 -79c15,8 38,18 69,28 31,11 69,16 114,16zm777 -623c96,0 170,18 222,54 52,37 77,92 77,164 0,40 -7,73 -21,101 -14,28 -34,51 -61,69 -27,17 -59,30 -97,38 -39,7 -82,11 -130,11l-76 0 0 254 -96 0 0 -675c27,-6 57,-11 91,-13 33,-2 63,-3 91,-3zm8 84c-41,0 -72,1 -94,3l0 268 72 0c33,0 63,-2 89,-6 26,-4 49,-12 67,-22 18,-10 32,-24 42,-42 10,-18 15,-40 15,-68 0,-26 -5,-48 -16,-65 -10,-17 -24,-31 -41,-41 -18,-10 -38,-18 -61,-22 -23,-3 -47,-5 -73,-5zm383 264c0,-58 9,-110 27,-155 17,-45 41,-82 71,-112 30,-30 65,-52 105,-68 39,-15 82,-22 127,-22 44,0 85,7 125,22 39,16 73,38 103,68 30,30 53,67 71,112 17,45 26,97 26,155 0,59 -9,111 -26,156 -18,44 -41,82 -71,112 -30,30 -64,52 -103,68 -40,15 -81,22 -125,22 -45,0 -88,-7 -127,-22 -40,-16 -75,-38 -105,-68 -30,-30 -54,-68 -71,-112 -18,-45 -27,-97 -27,-156zm101 0c0,42 5,80 16,114 11,34 26,62 45,86 19,24 43,42 71,55 28,13 60,19 95,19 34,0 66,-6 93,-19 28,-13 52,-31 71,-55 20,-24 35,-52 45,-86 11,-34 16,-72 16,-114 0,-41 -5,-79 -16,-113 -10,-34 -25,-62 -45,-86 -19,-24 -43,-42 -71,-55 -27,-13 -59,-19 -93,-19 -35,0 -67,6 -95,19 -28,13 -52,31 -71,55 -19,24 -34,52 -45,86 -11,34 -16,72 -16,113zm1127 -342l0 83 -215 0 0 602 -96 0 0 -602 -216 0 0 -83 527 0zm101 685l0 -685 418 0 0 83 -322 0 0 203 286 0 0 80 -286 0 0 237 347 0 0 82 -443 0zm976 -83l0 83 -412 0 0 -685 96 0 0 602 316 0zm1079 98c-45,0 -84,-7 -117,-20 -33,-14 -60,-33 -81,-57 -21,-24 -37,-53 -47,-86 -10,-33 -15,-68 -15,-107l0 -430 96 0 0 420c0,68 15,118 45,149 30,31 70,46 119,46 24,0 46,-4 66,-11 21,-8 38,-19 52,-35 15,-16 26,-36 34,-61 8,-25 12,-54 12,-88l0 -420 96 0 0 430c0,39 -5,74 -16,107 -10,33 -26,62 -47,86 -21,24 -49,43 -81,57 -33,13 -71,20 -116,20zm894 -15c-14,-24 -31,-51 -50,-82 -18,-30 -39,-61 -60,-94 -22,-33 -45,-66 -68,-99 -24,-34 -47,-66 -70,-98 -23,-31 -45,-60 -67,-88 -22,-28 -42,-52 -60,-73l0 534 -94 0 0 -685 76 0c31,33 64,72 99,116 35,43 70,89 105,135 35,46 67,92 98,137 30,45 56,85 77,120l0 -508 94 0 0 685 -80 0zm223 -343c0,-58 8,-110 26,-155 17,-45 41,-82 71,-112 30,-30 65,-52 105,-68 40,-15 82,-22 127,-22 44,0 86,7 125,22 39,16 73,38 103,68 30,30 53,67 71,112 17,45 26,97 26,155 0,59 -9,111 -26,156 -18,44 -41,82 -71,112 -30,30 -64,52 -103,68 -39,15 -81,22 -125,22 -45,0 -87,-7 -127,-22 -40,-16 -75,-38 -105,-68 -30,-30 -54,-68 -71,-112 -18,-45 -26,-97 -26,-156zm100 0c0,42 6,80 16,114 11,34 26,62 45,86 20,24 43,42 71,55 28,13 60,19 95,19 35,0 66,-6 94,-19 27,-13 51,-31 70,-55 20,-24 35,-52 45,-86 11,-34 16,-72 16,-114 0,-41 -5,-79 -16,-113 -10,-34 -25,-62 -45,-86 -19,-24 -43,-42 -70,-55 -28,-13 -59,-19 -94,-19 -35,0 -67,6 -95,19 -28,13 -51,31 -71,55 -19,24 -34,52 -45,86 -10,34 -16,72 -16,113zm1127 -342l0 83 -215 0 0 602 -96 0 0 -602 -216 0 0 -83 527 0z"/>
  <path class="fil0" d="M4998 2002l0 -669 403 0 0 80 -310 0 0 202 275 0 0 79 -275 0 0 308 -93 0zm670 -512c8,0 17,0 27,1 10,1 19,2 29,4 10,2 19,3 27,5 8,1 14,3 17,4l-15 78c-7,-2 -19,-5 -35,-9 -17,-4 -38,-5 -63,-5 -17,0 -34,1 -50,5 -16,4 -27,6 -32,7l0 422 -90 0 0 -481c21,-7 47,-15 79,-21 32,-7 67,-10 106,-10zm630 261c0,40 -6,76 -17,108 -12,32 -28,60 -49,83 -21,23 -46,41 -75,54 -29,12 -60,18 -94,18 -34,0 -66,-6 -95,-18 -29,-13 -54,-31 -75,-54 -21,-23 -37,-51 -48,-83 -12,-32 -18,-68 -18,-108 0,-39 6,-75 18,-108 11,-32 27,-60 48,-83 21,-23 46,-41 75,-54 29,-12 61,-18 95,-18 34,0 65,6 94,18 29,13 54,31 75,54 21,23 37,51 49,83 11,33 17,69 17,108zm-94 0c0,-57 -12,-101 -38,-135 -25,-33 -60,-49 -103,-49 -44,0 -79,16 -104,49 -25,34 -38,78 -38,135 0,57 13,101 38,135 25,33 60,49 104,49 43,0 78,-16 103,-49 26,-34 38,-78 38,-135zm220 -236c21,-5 48,-11 82,-17 34,-6 74,-8 118,-8 40,0 73,5 99,16 27,12 48,27 64,48 15,20 26,44 33,73 6,28 9,59 9,93l0 282 -89 0 0 -263c0,-30 -2,-57 -6,-79 -5,-22 -12,-39 -21,-53 -10,-13 -23,-23 -39,-29 -16,-6 -36,-9 -60,-9 -9,0 -19,0 -30,1 -10,0 -20,1 -29,2 -9,1 -18,2 -25,3 -7,2 -13,3 -16,3l0 424 -90 0 0 -487zm638 -15l190 0 0 75 -190 0 0 232c0,25 2,46 6,62 4,17 9,29 17,39 8,9 17,16 29,20 12,3 25,5 41,5 27,0 48,-3 65,-9 16,-6 27,-10 34,-13l17 74c-9,5 -24,11 -47,17 -22,7 -48,10 -77,10 -34,0 -62,-4 -85,-13 -22,-8 -40,-21 -53,-39 -14,-17 -23,-38 -29,-64 -5,-25 -8,-55 -8,-88l0 -448 90 -15 0 155zm214 171l238 0 0 84 -238 0 0 -84zm346 331l0 -669 408 0 0 80 -314 0 0 199 280 0 0 78 -280 0 0 232 339 0 0 80 -433 0zm545 -487c21,-5 48,-11 82,-17 34,-6 74,-8 118,-8 40,0 73,5 99,16 27,12 48,27 64,48 15,20 26,44 33,73 6,28 10,59 10,93l0 282 -90 0 0 -263c0,-30 -2,-57 -6,-79 -5,-22 -12,-39 -21,-53 -10,-13 -23,-23 -39,-29 -16,-6 -36,-9 -60,-9 -9,0 -19,0 -29,1 -11,0 -21,1 -30,2 -9,1 -18,2 -25,3 -7,2 -13,3 -16,3l0 424 -90 0 0 -487zm878 91c-11,-9 -26,-17 -47,-26 -21,-8 -43,-12 -68,-12 -25,0 -47,4 -66,14 -18,9 -33,22 -45,38 -11,17 -19,36 -25,59 -5,22 -7,46 -7,72 0,59 14,104 43,136 29,31 68,47 116,47 24,0 45,-1 61,-3 16,-2 29,-5 38,-7l0 -318zm0 -337l90 -16 0 734c-21,6 -47,12 -79,18 -32,5 -69,8 -111,8 -39,0 -73,-6 -104,-18 -31,-12 -58,-30 -79,-52 -22,-23 -39,-50 -51,-83 -12,-32 -18,-68 -18,-109 0,-39 5,-74 15,-106 10,-32 25,-60 44,-83 19,-23 43,-41 71,-54 28,-13 60,-19 96,-19 29,0 54,3 77,11 22,8 38,15 49,22l0 -253zm838 279c-27,87 -54,166 -82,240 -27,73 -55,144 -82,214l-94 0c-34,-99 -64,-202 -90,-312 -26,-109 -51,-228 -73,-357l98 0c9,50 19,101 28,151 10,50 20,99 30,146 10,47 21,92 31,135 10,44 21,83 32,120 26,-67 53,-142 82,-222 29,-81 56,-164 81,-251l81 0c25,87 52,170 82,251 30,80 57,155 83,222 10,-36 20,-75 31,-119 10,-43 20,-88 30,-135 10,-47 20,-96 30,-147 9,-50 19,-101 28,-151l95 0c-23,129 -48,248 -74,357 -26,110 -56,213 -89,312l-94 0c-28,-70 -56,-141 -83,-214 -27,-74 -54,-153 -81,-240zm476 204c0,-44 6,-83 19,-116 13,-33 30,-61 51,-83 22,-22 46,-38 74,-49 27,-11 56,-16 85,-16 67,0 119,21 155,63 36,42 54,106 54,192 0,4 0,9 0,15 0,6 0,12 -1,17l-343 0c3,52 19,92 45,119 26,27 67,40 123,40 32,0 58,-2 80,-8 21,-5 38,-11 49,-16l12 75c-11,6 -30,12 -57,19 -28,6 -59,9 -93,9 -44,0 -82,-6 -114,-19 -31,-14 -58,-32 -78,-55 -21,-23 -36,-51 -46,-82 -10,-32 -15,-67 -15,-105zm344 -49c1,-41 -9,-74 -30,-100 -21,-26 -50,-39 -86,-39 -21,0 -39,4 -55,12 -16,8 -29,18 -40,31 -11,13 -19,28 -25,45 -7,16 -11,33 -13,51l249 0zm313 -181c11,-7 27,-14 50,-22 22,-8 47,-11 76,-11 36,0 68,6 96,19 28,13 52,31 71,54 19,23 34,51 44,83 10,32 15,67 15,106 0,41 -6,77 -18,109 -12,33 -29,60 -51,83 -21,22 -48,40 -79,52 -30,12 -65,18 -104,18 -42,0 -79,-3 -111,-8 -32,-6 -58,-12 -79,-18l0 -718 90 -16 0 269zm0 402c9,2 22,5 38,7 16,2 37,3 61,3 48,0 87,-16 116,-47 29,-32 43,-77 43,-136 0,-26 -2,-50 -7,-72 -5,-23 -14,-42 -25,-59 -12,-16 -27,-29 -45,-38 -19,-10 -41,-14 -66,-14 -25,0 -47,4 -68,12 -20,9 -36,17 -47,26l0 318zm1256 -257c0,58 -9,108 -27,151 -18,43 -44,78 -76,106 -33,28 -72,49 -118,63 -46,14 -96,21 -151,21 -27,0 -56,-2 -89,-4 -32,-2 -62,-6 -88,-13l0 -648c26,-6 56,-11 88,-13 33,-2 62,-3 89,-3 55,0 105,6 151,20 46,14 85,35 118,63 32,28 58,63 76,106 18,43 27,93 27,151zm-364 259c89,0 155,-23 199,-68 44,-46 65,-109 65,-191 0,-82 -21,-145 -65,-190 -44,-46 -110,-68 -199,-68 -26,0 -47,0 -61,1 -15,0 -25,1 -30,1l0 512c5,0 15,1 30,2 14,0 35,1 61,1zm469 -174c0,-44 6,-83 19,-116 13,-33 30,-61 51,-83 22,-22 46,-38 74,-49 27,-11 56,-16 85,-16 67,0 119,21 155,63 36,42 54,106 54,192 0,4 0,9 0,15 0,6 0,12 -1,17l-343 0c3,52 19,92 45,119 26,27 67,40 123,40 32,0 58,-2 80,-8 21,-5 38,-11 49,-16l12 75c-11,6 -30,12 -57,19 -28,6 -59,9 -93,9 -44,0 -82,-6 -114,-19 -31,-14 -58,-32 -78,-55 -21,-23 -36,-51 -46,-82 -10,-32 -15,-67 -15,-105zm344 -49c1,-41 -9,-74 -30,-100 -21,-26 -50,-39 -86,-39 -21,0 -39,4 -55,12 -16,8 -29,18 -40,31 -11,13 -19,28 -25,45 -7,16 -11,33 -13,51l249 0zm340 234c37,0 64,-5 81,-14 18,-10 27,-25 27,-47 0,-21 -9,-39 -26,-52 -17,-13 -46,-27 -86,-43 -19,-8 -38,-16 -55,-24 -18,-8 -33,-17 -46,-28 -13,-11 -23,-24 -31,-40 -8,-15 -12,-34 -12,-57 0,-44 17,-79 49,-105 33,-26 78,-39 135,-39 14,0 28,0 42,2 14,2 27,4 40,6 12,2 23,5 32,7 9,3 16,5 22,7l-17 77c-9,-5 -25,-10 -45,-16 -21,-5 -45,-8 -74,-8 -26,0 -47,5 -66,15 -19,10 -28,25 -28,47 0,11 2,20 6,29 4,8 11,15 20,22 8,7 19,13 32,19 13,6 28,12 46,18 24,9 45,18 64,27 18,9 34,19 48,30 13,12 23,26 30,42 7,17 11,37 11,61 0,46 -18,81 -52,105 -34,23 -83,35 -147,35 -44,0 -79,-3 -104,-11 -25,-7 -42,-13 -51,-17l16 -77c10,4 27,10 49,18 23,7 53,11 90,11zm403 65l-90 0 0 -502 90 0 0 502zm-45 -592c-16,0 -30,-6 -41,-16 -11,-11 -17,-25 -17,-43 0,-18 6,-33 17,-43 11,-11 25,-16 41,-16 16,0 29,5 41,16 11,10 17,25 17,43 0,18 -6,32 -17,43 -12,10 -25,16 -41,16zm514 542c-8,5 -23,11 -45,19 -22,8 -48,12 -78,12 -30,0 -58,-4 -85,-14 -27,-10 -50,-25 -70,-45 -20,-20 -36,-45 -47,-76 -12,-30 -18,-66 -18,-108 0,-36 6,-70 17,-100 11,-31 27,-57 48,-80 21,-22 46,-39 76,-52 31,-12 65,-18 103,-18 41,0 78,3 109,9 31,6 57,11 79,17l0 447c0,77 -20,133 -60,168 -40,35 -100,52 -182,52 -31,0 -61,-2 -89,-8 -28,-5 -52,-11 -73,-18l17 -78c18,7 40,13 66,19 26,5 53,8 81,8 54,0 92,-11 116,-32 23,-21 35,-55 35,-101l0 -21zm-1 -373c-9,-2 -21,-5 -36,-7 -15,-2 -36,-3 -61,-3 -49,0 -86,15 -112,47 -26,31 -39,73 -39,125 0,29 4,54 11,75 8,20 17,37 30,51 13,13 27,23 43,30 17,6 34,9 51,9 24,0 46,-3 66,-10 20,-7 35,-14 47,-23l0 -294zm244 -64c21,-5 48,-11 82,-17 34,-6 73,-8 118,-8 40,0 73,5 99,16 26,12 47,27 63,48 16,20 27,44 33,73 7,28 10,59 10,93l0 282 -90 0 0 -263c0,-30 -2,-57 -6,-79 -4,-22 -11,-39 -21,-53 -9,-13 -22,-23 -38,-29 -16,-6 -36,-9 -60,-9 -10,0 -20,0 -30,1 -10,0 -20,1 -29,2 -10,1 -18,2 -25,3 -8,2 -13,3 -16,3l0 424 -90 0 0 -487zm526 237c0,-44 6,-83 19,-116 13,-33 30,-61 51,-83 21,-22 46,-38 73,-49 28,-11 56,-16 85,-16 68,0 120,21 156,63 36,42 54,106 54,192 0,4 0,9 0,15 0,6 -1,12 -1,17l-344 0c4,52 19,92 46,119 26,27 67,40 123,40 32,0 58,-2 80,-8 21,-5 37,-11 48,-16l13 75c-11,6 -30,12 -57,19 -28,6 -59,9 -94,9 -43,0 -81,-6 -113,-19 -32,-14 -58,-32 -79,-55 -20,-23 -35,-51 -45,-82 -10,-32 -15,-67 -15,-105zm344 -49c1,-41 -9,-74 -30,-100 -21,-26 -50,-39 -87,-39 -20,0 -38,4 -54,12 -16,8 -29,18 -40,31 -11,13 -20,28 -26,45 -6,16 -10,33 -12,51l249 0zm408 -213c8,0 17,0 27,1 10,1 19,2 29,4 10,2 19,3 27,5 8,1 14,3 17,4l-15 78c-7,-2 -19,-5 -35,-9 -17,-4 -38,-5 -63,-5 -17,0 -34,1 -50,5 -16,4 -27,6 -32,7l0 422 -90 0 0 -481c21,-7 47,-15 79,-21 31,-7 67,-10 106,-10z"/>
  <path class="fil1" d="M1269 0c-798,19 -1347,879 -1327,1708 9,369 236,704 571,696 425,-10 637,-448 1138,-460 583,-13 966,480 1557,467 798,-19 1347,-880 1327,-1708 -9,-369 -236,-705 -571,-697 -467,11 -524,436 -1174,451 -579,14 -932,-471 -1521,-457z"/>
 </g>
</svg>
