<?xml version="1.0" encoding="UTF-8"?>
<!DOCTYPE svg PUBLIC "-//W3C//DTD SVG 1.1//EN" "http://www.w3.org/Graphics/SVG/1.1/DTD/svg11.dtd">
<!-- Creator: CorelDRAW X8 -->
<svg xmlns="http://www.w3.org/2000/svg" xml:space="preserve" width="140mm" height="23mm" version="1.1" style="shape-rendering:geometricPrecision; text-rendering:geometricPrecision; image-rendering:optimizeQuality; fill-rule:evenodd; clip-rule:evenodd"
viewBox="0 0 14000 2300"
 xmlns:xlink="http://www.w3.org/1999/xlink">
 <defs>
  <style type="text/css">
   <![CDATA[
    .fil0 {fill:#333333;fill-rule:nonzero}
    .fil1 {fill:url(#id0);fill-rule:nonzero}
   ]]>
  </style>
  <linearGradient id="id0" gradientUnits="userSpaceOnUse" x1="2729.72" y1="2279.48" x2="1513.24" y2="-36.8664">
   <stop offset="0" style="stop-opacity:1; stop-color:#A12BFF"/>
   <stop offset="0.419608" style="stop-opacity:1; stop-color:#6877F1"/>
   <stop offset="1" style="stop-opacity:1; stop-color:#2EC3E3"/>
  </linearGradient>
 </defs>
 <g id="Capa_x0020_1">
  <metadata id="CorelCorpID_0Corel-Layer"/>
  <path class="fil0" d="M4964 905c-12,-21 -27,-45 -44,-72 -16,-26 -34,-54 -54,-83 -18,-29 -38,-58 -59,-87 -21,-30 -41,-58 -61,-86 -21,-28 -40,-53 -59,-78 -20,-25 -37,-46 -53,-64l0 470 -83 0 0 -603 67 0c27,29 56,63 87,102 31,38 62,78 93,119 31,41 59,81 86,121 27,39 49,75 68,105l0 -447 83 0 0 603 -71 0 0 0zm6421 -527l-215 0 0 -76 215 0 85 0 0 88 0 322c0,29 -4,56 -10,81 -6,24 -17,46 -32,66 -16,18 -36,33 -62,44 -26,10 -59,16 -97,16 -20,0 -38,-2 -54,-5 -17,-3 -32,-7 -45,-12 -14,-5 -26,-11 -35,-16 -10,-5 -18,-11 -24,-16l33 -67c13,9 29,18 48,28 19,9 43,14 72,14 43,0 73,-11 92,-32 19,-21 29,-57 29,-109l0 -326zm-6200 -76l84 0 0 603 -84 0 0 -603zm494 617c-42,0 -81,-7 -116,-21 -35,-14 -65,-34 -90,-61 -25,-27 -44,-59 -57,-99 -15,-39 -22,-84 -22,-135 0,-50 8,-95 24,-134 15,-39 36,-72 62,-99 26,-27 57,-47 92,-61 35,-13 72,-21 111,-21 25,0 48,2 67,6 21,3 38,7 53,11 14,6 27,10 36,14 9,6 15,8 19,11l-24 70c-5,-4 -13,-8 -23,-12 -9,-3 -21,-8 -33,-12 -13,-4 -27,-7 -42,-10 -14,-3 -29,-3 -44,-3 -32,0 -61,5 -86,15 -26,12 -48,28 -65,49 -19,21 -33,46 -42,76 -9,30 -15,63 -15,100 0,36 5,70 14,99 7,30 20,55 37,77 17,21 38,37 63,48 26,12 55,18 89,18 39,0 71,-4 96,-13 26,-8 45,-15 58,-21l21 70c-3,2 -11,6 -21,10 -10,5 -24,9 -39,13 -16,4 -34,8 -55,10 -21,4 -44,5 -68,5l0 0zm239 -316c0,-51 7,-97 23,-136 15,-40 36,-73 62,-99 27,-27 58,-46 93,-60 35,-13 72,-20 112,-20 39,0 75,7 110,20 34,14 64,33 91,60 26,26 47,59 62,99 15,39 23,85 23,136 0,52 -8,98 -23,138 -15,38 -36,72 -62,98 -27,27 -57,46 -91,60 -35,13 -71,20 -110,20 -40,0 -77,-7 -112,-20 -35,-14 -66,-33 -93,-60 -26,-26 -47,-60 -62,-98 -16,-40 -23,-86 -23,-138zm88 0c0,37 5,71 14,101 10,30 23,54 40,75 17,22 38,37 62,49 25,11 53,17 84,17 31,0 58,-6 83,-17 24,-12 45,-27 62,-49 17,-21 31,-45 39,-75 10,-30 14,-64 14,-101 0,-36 -4,-69 -14,-99 -8,-30 -22,-55 -39,-76 -17,-21 -38,-37 -62,-49 -25,-11 -52,-16 -83,-16 -31,0 -59,5 -84,16 -24,12 -45,28 -62,49 -17,21 -30,46 -40,76 -9,30 -14,63 -14,99zm977 229l0 73 -364 0 0 -603 85 0 0 530 279 0 0 0zm516 73c-10,-25 -18,-51 -27,-76 -9,-26 -18,-51 -28,-78l-273 0 -54 154 -89 0c23,-63 45,-122 66,-177 20,-53 39,-105 60,-154 19,-48 38,-95 57,-140 19,-44 40,-88 60,-132l77 0c22,44 42,88 61,132 19,45 38,92 57,140 20,49 40,101 60,154 21,55 43,114 66,177l-93 0 0 0zm-78 -223c-20,-51 -37,-99 -56,-147 -18,-47 -38,-92 -57,-136 -20,44 -40,89 -58,136 -18,48 -36,96 -54,147l225 0 0 0zm407 164c88,0 132,-30 132,-91 0,-19 -3,-35 -11,-47 -8,-13 -19,-25 -32,-34 -13,-10 -29,-18 -46,-25 -17,-7 -35,-14 -55,-21 -22,-7 -43,-16 -62,-26 -20,-9 -37,-21 -51,-34 -15,-12 -27,-28 -35,-46 -9,-18 -13,-41 -13,-66 0,-53 19,-93 55,-123 36,-30 85,-45 149,-45 36,0 69,4 99,12 30,8 52,17 65,25l-26 69c-12,-7 -31,-15 -55,-22 -23,-7 -52,-10 -83,-10 -17,0 -32,1 -46,5 -14,3 -26,8 -36,15 -11,7 -19,16 -25,27 -6,11 -10,23 -10,38 0,16 4,29 10,41 6,11 16,21 27,29 12,9 25,16 41,23 15,7 32,14 51,21 26,10 49,21 71,32 22,9 41,22 57,37 16,15 28,31 37,52 9,20 13,44 13,72 0,53 -19,94 -58,122 -38,29 -93,43 -163,43 -24,0 -46,-2 -66,-5 -20,-3 -38,-7 -53,-11 -16,-5 -29,-9 -41,-14 -11,-5 -20,-9 -26,-13l25 -69c13,7 33,16 60,24 28,10 61,15 101,15l0 0zm685 -550c84,0 149,16 195,48 46,33 68,81 68,145 0,35 -6,64 -18,89 -13,24 -30,45 -54,60 -24,15 -52,27 -86,34 -34,6 -72,10 -114,10l-67 0 0 223 -85 0 0 -594c24,-6 50,-10 80,-12 30,-2 56,-3 81,-3l0 0zm7 74c-36,0 -64,1 -83,3l0 236 63 0c29,0 56,-1 79,-5 23,-4 43,-11 59,-19 16,-9 28,-22 37,-37 9,-16 13,-36 13,-60 0,-23 -4,-43 -14,-58 -9,-15 -21,-27 -36,-36 -16,-9 -34,-16 -54,-19 -20,-3 -41,-5 -64,-5zm337 233c0,-51 8,-97 24,-136 15,-40 36,-73 63,-99 26,-27 57,-46 92,-60 35,-13 72,-20 112,-20 39,0 75,7 110,20 35,14 65,33 91,60 26,26 47,59 63,99 15,39 23,85 23,136 0,52 -8,98 -23,138 -16,38 -37,72 -63,98 -26,27 -56,46 -91,60 -35,13 -71,20 -110,20 -40,0 -77,-7 -112,-20 -35,-14 -66,-33 -92,-60 -27,-26 -48,-60 -63,-98 -16,-40 -24,-86 -24,-138zm89 0c0,37 5,71 14,101 10,30 23,54 40,75 17,22 38,37 63,49 24,11 52,17 83,17 30,0 59,-6 82,-17 25,-12 46,-27 63,-49 18,-21 31,-45 40,-75 9,-30 14,-64 14,-101 0,-36 -5,-69 -14,-99 -9,-30 -22,-55 -40,-76 -17,-21 -38,-37 -63,-49 -23,-11 -52,-16 -82,-16 -31,0 -59,5 -83,16 -25,12 -46,28 -63,49 -17,21 -30,46 -40,76 -9,30 -14,63 -14,99zm994 -301l0 73 -190 0 0 530 -85 0 0 -530 -190 0 0 -73 465 0 0 0zm89 603l0 -603 368 0 0 73 -284 0 0 179 252 0 0 70 -252 0 0 209 306 0 0 72 -390 0 0 0zm860 -73l0 73 -363 0 0 -603 84 0 0 530 279 0 0 0zm951 87c-40,0 -74,-7 -103,-18 -29,-12 -53,-29 -72,-50 -18,-21 -32,-47 -41,-76 -9,-29 -13,-60 -13,-94l0 -379 84 0 0 370c0,60 13,104 40,131 26,28 62,41 105,41 21,0 40,-4 58,-10 18,-7 33,-17 46,-31 13,-14 23,-32 30,-54 7,-22 10,-47 10,-77l0 -370 85 0 0 379c0,34 -4,65 -14,94 -9,29 -23,55 -42,76 -18,21 -43,38 -71,50 -29,12 -63,18 -102,18l0 0zm788 -14c-13,-21 -28,-45 -44,-72 -16,-26 -35,-54 -53,-83 -20,-29 -40,-58 -60,-87 -21,-30 -42,-58 -62,-86 -20,-28 -40,-53 -59,-78 -19,-25 -37,-46 -53,-64l0 470 -83 0 0 -603 67 0c28,29 57,63 88,102 30,38 61,78 92,119 31,41 59,81 86,121 27,39 50,75 68,105l0 -447 83 0 0 603 -70 0 0 0zm196 -302c0,-51 7,-97 23,-136 15,-40 36,-73 63,-99 26,-27 57,-46 92,-60 36,-13 73,-20 112,-20 39,0 76,7 110,20 35,14 65,33 91,60 27,26 47,59 63,99 15,39 23,85 23,136 0,52 -8,98 -23,138 -16,38 -36,72 -63,98 -26,27 -56,46 -91,60 -34,13 -71,20 -110,20 -39,0 -76,-7 -112,-20 -35,-14 -66,-33 -92,-60 -27,-26 -48,-60 -63,-98 -16,-40 -23,-86 -23,-138zm88 0c0,37 6,71 14,101 10,30 23,54 40,75 18,22 38,37 63,49 24,11 53,17 83,17 31,0 59,-6 83,-17 24,-12 45,-27 62,-49 18,-21 31,-45 40,-75 9,-30 14,-64 14,-101 0,-36 -5,-69 -14,-99 -9,-30 -22,-55 -40,-76 -17,-21 -38,-37 -62,-49 -24,-11 -52,-16 -83,-16 -30,0 -59,5 -83,16 -25,12 -45,28 -63,49 -17,21 -30,46 -40,76 -8,30 -14,63 -14,99zm994 -301l0 73 -190 0 0 530 -84 0 0 -530 -191 0 0 -73 465 0 0 0z"/>
  <path class="fil1" d="M1264 88c-703,16 -1187,774 -1169,1505 8,325 208,620 503,613 375,-8 561,-395 1003,-405 514,-12 851,423 1372,411 704,-16 1188,-775 1170,-1505 -8,-325 -208,-621 -503,-614 -412,10 -462,384 -1035,397 -510,13 -822,-415 -1341,-402l0 0z"/>
  <path class="fil0" d="M5053 1551c0,51 -7,95 -23,133 -16,37 -38,68 -67,93 -29,24 -63,43 -103,55 -40,12 -85,18 -132,18 -24,0 -50,-1 -79,-3 -28,-2 -54,-6 -77,-11l0 -569c23,-6 49,-10 77,-12 29,-2 55,-3 79,-3 47,0 92,6 132,19 40,12 74,30 103,55 29,24 51,55 67,93 16,37 23,81 23,132zm-319 227c78,0 136,-20 175,-60 38,-39 57,-95 57,-167 0,-71 -19,-127 -57,-167 -39,-40 -97,-60 -175,-60 -23,0 -41,1 -53,1 -13,1 -22,1 -27,2l0 449c5,0 14,1 27,1 12,1 30,1 53,1zm412 -152c0,-39 5,-73 17,-102 11,-29 26,-53 45,-73 18,-19 40,-33 64,-43 24,-9 49,-14 74,-14 60,0 105,18 137,55 31,37 47,94 47,169 0,4 0,8 0,13 0,6 0,11 -1,15l-301 0c3,46 17,81 40,104 23,24 59,36 108,36 28,0 51,-3 70,-7 19,-5 33,-10 43,-14l11 66c-10,5 -27,10 -51,16 -24,5 -51,8 -81,8 -39,0 -72,-6 -100,-17 -28,-12 -51,-28 -69,-48 -18,-20 -31,-44 -40,-72 -9,-28 -13,-59 -13,-92zm302 -43c1,-36 -8,-65 -27,-88 -18,-23 -43,-34 -75,-34 -18,0 -34,3 -48,10 -14,7 -26,16 -35,28 -10,11 -17,24 -23,39 -5,14 -9,29 -10,45l218 0zm298 205c32,0 56,-4 72,-12 15,-9 23,-22 23,-41 0,-19 -8,-34 -23,-46 -15,-11 -40,-24 -75,-38 -17,-7 -33,-14 -49,-21 -16,-7 -29,-15 -40,-25 -12,-9 -21,-21 -27,-34 -7,-14 -10,-30 -10,-50 0,-39 14,-70 43,-93 28,-23 68,-34 117,-34 13,0 25,1 38,2 12,1 24,3 34,5 11,2 21,4 29,6 8,3 14,5 19,6l-15 68c-8,-5 -21,-9 -39,-14 -18,-5 -40,-7 -66,-7 -22,0 -41,4 -57,13 -17,9 -25,22 -25,41 0,10 2,18 6,25 3,8 9,14 17,20 7,6 17,12 28,17 11,5 25,10 41,16 21,8 39,16 56,23 16,8 30,17 41,27 12,10 21,22 27,37 6,14 9,32 9,53 0,40 -15,71 -45,92 -30,21 -73,31 -129,31 -39,0 -69,-3 -91,-10 -22,-6 -37,-11 -45,-14l14 -68c9,3 24,8 43,15 20,7 46,10 79,10zm424 0c19,0 35,0 50,-1 14,-1 26,-2 36,-5l0 -131c-6,-3 -15,-5 -28,-7 -12,-2 -28,-3 -46,-3 -12,0 -24,1 -38,3 -13,1 -25,5 -36,10 -11,6 -20,13 -28,22 -7,9 -11,22 -11,37 0,28 10,48 28,59 18,11 42,16 73,16zm-7 -394c32,0 59,4 80,12 22,8 40,20 53,35 13,15 23,33 28,53 6,21 9,43 9,68l0 275c-7,2 -16,3 -29,5 -12,2 -25,4 -41,6 -15,1 -31,3 -49,4 -18,2 -36,2 -53,2 -25,0 -48,-2 -69,-7 -21,-5 -39,-13 -54,-24 -15,-11 -27,-26 -35,-44 -9,-18 -13,-40 -13,-65 0,-24 5,-45 15,-63 10,-17 23,-31 40,-42 17,-11 37,-19 59,-24 23,-5 46,-7 71,-7 8,0 16,0 25,1 8,1 16,2 24,3 8,2 14,3 20,4 6,1 9,2 12,3l0 -22c0,-13 -2,-26 -4,-39 -3,-13 -8,-24 -16,-34 -7,-10 -17,-18 -30,-24 -12,-6 -29,-8 -49,-8 -26,0 -49,1 -68,5 -20,4 -34,8 -44,11l-9 -65c10,-4 27,-9 50,-13 24,-4 50,-6 77,-6zm463 1c7,0 14,1 23,2 9,1 17,2 26,3 8,2 16,3 23,4 7,2 12,3 16,4l-14 69c-6,-2 -16,-5 -31,-8 -14,-3 -33,-5 -55,-5 -15,0 -29,2 -44,5 -14,3 -24,5 -28,6l0 370 -79 0 0 -422c19,-6 42,-13 70,-19 27,-6 58,-9 93,-9zm327 0c6,0 14,1 23,2 9,1 17,2 26,3 8,2 16,3 23,4 7,2 12,3 16,4l-14 69c-6,-2 -16,-5 -31,-8 -14,-3 -33,-5 -55,-5 -15,0 -30,2 -44,5 -14,3 -24,5 -28,6l0 370 -79 0 0 -422c19,-6 42,-13 69,-19 28,-6 59,-9 94,-9zm552 230c0,35 -5,67 -15,95 -10,28 -24,52 -43,73 -18,20 -40,36 -65,47 -26,11 -53,16 -83,16 -30,0 -58,-5 -83,-16 -26,-11 -47,-27 -66,-47 -18,-21 -32,-45 -43,-73 -10,-28 -15,-60 -15,-95 0,-34 5,-66 15,-94 11,-29 25,-53 43,-74 19,-20 40,-36 66,-47 25,-11 53,-16 83,-16 30,0 57,5 83,16 25,11 47,27 65,47 19,21 33,45 43,74 10,28 15,60 15,94zm-82 0c0,-50 -11,-89 -33,-118 -22,-29 -53,-44 -91,-44 -39,0 -69,15 -91,44 -22,29 -34,68 -34,118 0,50 12,89 34,118 22,29 52,44 91,44 38,0 69,-15 91,-44 22,-29 33,-68 33,-118zm325 229c-48,-2 -83,-12 -103,-32 -20,-20 -30,-50 -30,-92l0 -528 78 -14 0 529c0,13 2,24 4,32 2,9 6,16 11,21 5,5 12,9 20,11 9,3 19,5 31,7l-11 66zm232 0c-49,-2 -83,-12 -104,-32 -20,-20 -30,-50 -30,-92l0 -528 79 -14 0 529c0,13 1,24 3,32 2,9 6,16 11,21 5,5 12,9 20,11 9,3 19,5 32,7l-11 66zm248 -66c18,0 35,0 49,-1 15,-1 27,-2 36,-5l0 -131c-5,-3 -15,-5 -27,-7 -13,-2 -28,-3 -47,-3 -11,0 -24,1 -37,3 -13,1 -26,5 -37,10 -11,6 -20,13 -27,22 -7,9 -11,22 -11,37 0,28 9,48 27,59 18,11 43,16 74,16zm-7 -394c31,0 58,4 80,12 22,8 39,20 52,35 14,15 23,33 29,53 5,21 8,43 8,68l0 275c-7,2 -16,3 -28,5 -12,2 -26,4 -41,6 -15,1 -32,3 -50,4 -18,2 -35,2 -53,2 -25,0 -47,-2 -68,-7 -21,-5 -39,-13 -54,-24 -16,-11 -28,-26 -36,-44 -8,-18 -13,-40 -13,-65 0,-24 5,-45 15,-63 10,-17 23,-31 40,-42 17,-11 37,-19 60,-24 22,-5 46,-7 71,-7 8,0 16,0 24,1 9,1 17,2 24,3 8,2 15,3 20,4 6,1 10,2 12,3l0 -22c0,-13 -1,-26 -4,-39 -3,-13 -8,-24 -15,-34 -8,-10 -18,-18 -30,-24 -13,-6 -30,-8 -50,-8 -26,0 -49,1 -68,5 -20,4 -34,8 -44,11l-9 -65c10,-4 27,-9 51,-13 24,-4 49,-6 77,-6zm584 104c-10,-8 -23,-16 -41,-23 -18,-7 -38,-11 -60,-11 -22,0 -42,4 -58,12 -16,9 -29,20 -39,34 -10,15 -18,32 -22,51 -5,20 -7,41 -7,64 0,51 13,91 38,119 26,28 60,42 102,42 21,0 39,-1 54,-3 14,-2 25,-4 33,-7l0 -278zm0 -296l79 -14 0 644c-18,5 -41,11 -70,16 -28,5 -60,7 -97,7 -34,0 -64,-5 -91,-16 -28,-11 -51,-26 -70,-46 -19,-19 -34,-43 -44,-72 -11,-28 -16,-60 -16,-96 0,-34 4,-65 13,-93 9,-28 22,-53 39,-73 17,-20 37,-36 62,-47 24,-12 53,-17 84,-17 26,0 48,3 67,10 20,7 34,13 44,19l0 -222zm603 423c0,35 -5,67 -15,95 -10,28 -25,52 -43,73 -18,20 -40,36 -66,47 -25,11 -53,16 -83,16 -30,0 -57,-5 -83,-16 -25,-11 -47,-27 -65,-47 -19,-21 -33,-45 -43,-73 -10,-28 -15,-60 -15,-95 0,-34 5,-66 15,-94 10,-29 24,-53 43,-74 18,-20 40,-36 65,-47 26,-11 53,-16 83,-16 30,0 58,5 83,16 26,11 48,27 66,47 18,21 33,45 43,74 10,28 15,60 15,94zm-82 0c0,-50 -11,-89 -34,-118 -22,-29 -52,-44 -91,-44 -38,0 -68,15 -91,44 -22,29 -33,68 -33,118 0,50 11,89 33,118 23,29 53,44 91,44 39,0 69,-15 91,-44 23,-29 34,-68 34,-118zm355 -230c7,0 15,1 24,2 8,1 17,2 25,3 9,2 17,3 24,4 7,2 12,3 15,4l-13 69c-6,-2 -17,-5 -31,-8 -14,-3 -33,-5 -55,-5 -15,0 -30,2 -44,5 -14,3 -24,5 -28,6l0 370 -79 0 0 -422c18,-6 42,-13 69,-19 28,-6 59,-9 93,-9zm365 450l0 -587 354 0 0 71 -272 0 0 177 242 0 0 69 -242 0 0 270 -82 0zm589 -450c7,0 14,1 23,2 9,1 17,2 26,3 8,2 16,3 23,4 7,2 12,3 16,4l-14 69c-6,-2 -16,-5 -31,-8 -14,-3 -33,-5 -55,-5 -15,0 -29,2 -44,5 -14,3 -24,5 -28,6l0 370 -79 0 0 -422c19,-6 42,-13 70,-19 27,-6 58,-9 93,-9zm553 230c0,35 -5,67 -16,95 -10,28 -24,52 -42,73 -19,20 -41,36 -66,47 -25,11 -53,16 -83,16 -30,0 -58,-5 -83,-16 -25,-11 -47,-27 -66,-47 -18,-21 -32,-45 -42,-73 -10,-28 -16,-60 -16,-95 0,-34 6,-66 16,-94 10,-29 24,-53 42,-74 19,-20 41,-36 66,-47 25,-11 53,-16 83,-16 30,0 58,5 83,16 25,11 47,27 66,47 18,21 32,45 42,74 11,28 16,60 16,94zm-83 0c0,-50 -11,-89 -33,-118 -22,-29 -53,-44 -91,-44 -38,0 -69,15 -91,44 -22,29 -33,68 -33,118 0,50 11,89 33,118 22,29 53,44 91,44 38,0 69,-15 91,-44 22,-29 33,-68 33,-118zm194 -207c18,-5 42,-10 71,-15 30,-5 65,-8 104,-8 35,0 64,5 87,15 23,10 42,24 55,42 14,18 24,39 30,64 5,25 8,52 8,82l0 247 -79 0 0 -230c0,-27 -1,-50 -5,-70 -4,-19 -10,-34 -18,-46 -9,-12 -20,-21 -34,-26 -14,-5 -32,-8 -53,-8 -8,0 -17,0 -26,1 -9,0 -18,1 -26,2 -8,1 -15,2 -22,3 -6,1 -11,2 -14,2l0 372 -78 0 0 -427zm559 -13l167 0 0 66 -167 0 0 203c0,22 2,40 5,55 4,14 9,25 15,34 7,8 16,13 26,17 10,3 22,5 35,5 24,0 43,-3 58,-8 14,-5 24,-9 30,-12l15 66c-8,4 -22,9 -42,14 -19,6 -42,9 -67,9 -30,0 -55,-3 -74,-11 -20,-8 -36,-19 -47,-34 -12,-16 -21,-34 -25,-57 -5,-22 -8,-48 -8,-77l0 -393 79 -14 0 137zm188 150l209 0 0 73 -209 0 0 -73zm274 71c0,-39 6,-73 17,-102 12,-29 27,-53 45,-73 19,-19 40,-33 65,-43 24,-9 49,-14 74,-14 59,0 105,18 136,55 32,37 48,94 48,169 0,4 0,8 0,13 0,6 0,11 -1,15l-301 0c3,46 16,81 39,104 24,24 60,36 109,36 27,0 51,-3 70,-7 18,-5 33,-10 42,-14l11 66c-9,5 -26,10 -50,16 -24,5 -51,8 -82,8 -38,0 -71,-6 -99,-17 -28,-12 -51,-28 -69,-48 -18,-20 -32,-44 -40,-72 -9,-28 -14,-59 -14,-92zm303 -43c0,-36 -9,-65 -27,-88 -18,-23 -44,-34 -76,-34 -18,0 -34,3 -48,10 -13,7 -25,16 -35,28 -9,11 -17,24 -22,39 -6,14 -9,29 -11,45l219 0zm195 -165c18,-5 42,-10 72,-15 30,-5 65,-8 104,-8 35,0 64,5 87,15 23,10 41,24 55,42 14,18 24,39 29,64 6,25 9,52 9,82l0 247 -79 0 0 -230c0,-27 -2,-50 -5,-70 -4,-19 -10,-34 -19,-46 -8,-12 -19,-21 -33,-26 -15,-5 -32,-8 -53,-8 -8,0 -17,0 -26,1 -9,0 -18,1 -26,2 -8,1 -16,2 -22,3 -6,1 -11,2 -14,2l0 372 -79 0 0 -427zm771 80c-10,-8 -24,-16 -42,-23 -18,-7 -38,-11 -59,-11 -23,0 -42,4 -58,12 -16,9 -29,20 -39,34 -11,15 -18,32 -22,51 -5,20 -7,41 -7,64 0,51 13,91 38,119 25,28 59,42 102,42 21,0 39,-1 53,-3 15,-2 26,-4 34,-7l0 -278zm0 -296l79 -14 0 644c-19,5 -42,11 -70,16 -28,5 -61,7 -97,7 -34,0 -65,-5 -92,-16 -27,-11 -50,-26 -69,-46 -19,-19 -34,-43 -45,-72 -10,-28 -15,-60 -15,-96 0,-34 4,-65 13,-93 9,-28 21,-53 38,-73 17,-20 38,-36 63,-47 24,-12 52,-17 84,-17 25,0 48,3 67,10 20,7 34,13 44,19l0 -222z"/>
 </g>
</svg>
