<?xml version="1.0" encoding="UTF-8"?>
<!DOCTYPE svg PUBLIC "-//W3C//DTD SVG 1.1//EN" "http://www.w3.org/Graphics/SVG/1.1/DTD/svg11.dtd">
<!-- Creator: CorelDRAW X8 -->
<svg xmlns="http://www.w3.org/2000/svg" xml:space="preserve" width="140mm" height="22mm" version="1.1" style="shape-rendering:geometricPrecision; text-rendering:geometricPrecision; image-rendering:optimizeQuality; fill-rule:evenodd; clip-rule:evenodd"
viewBox="0 0 14000 2200"
 xmlns:xlink="http://www.w3.org/1999/xlink">
 <defs>
  <style type="text/css">
   <![CDATA[
    .fil0 {fill:#333333;fill-rule:nonzero}
    .fil1 {fill:url(#id0);fill-rule:nonzero}
   ]]>
  </style>
  <linearGradient id="id0" gradientUnits="userSpaceOnUse" x1="2735.42" y1="2242.92" x2="1508.4" y2="-101.33">
   <stop offset="0" style="stop-opacity:1; stop-color:#A12BFF"/>
   <stop offset="0.419608" style="stop-opacity:1; stop-color:#6877F1"/>
   <stop offset="1" style="stop-opacity:1; stop-color:#2EC3E3"/>
  </linearGradient>
 </defs>
 <g id="Capa_x0020_1">
  <metadata id="CorelCorpID_0Corel-Layer"/>
  <g id="_2371404790640">
   <path class="fil0" d="M4964 855c-12,-21 -27,-45 -44,-72 -16,-26 -34,-54 -54,-83 -18,-29 -38,-58 -59,-87 -21,-30 -41,-58 -61,-86 -21,-28 -40,-53 -59,-78 -20,-25 -37,-46 -53,-64l0 470 -83 0 0 -603 67 0c27,29 56,63 87,102 31,38 62,78 93,119 31,41 59,81 86,121 27,39 49,75 68,105l0 -447 83 0 0 603 -71 0 0 0zm6421 -527l-215 0 0 -76 215 0 85 0 0 88 0 322c0,29 -4,56 -10,81 -6,24 -17,46 -32,66 -16,18 -36,33 -62,44 -26,10 -59,16 -97,16 -20,0 -38,-2 -54,-5 -17,-3 -32,-7 -45,-12 -14,-5 -26,-11 -35,-16 -10,-5 -18,-11 -24,-16l33 -67c13,9 29,18 48,28 19,9 43,14 72,14 43,0 73,-11 92,-32 19,-21 29,-57 29,-109l0 -326zm-6200 -76l84 0 0 603 -84 0 0 -603zm494 617c-42,0 -81,-7 -116,-21 -35,-14 -65,-34 -90,-61 -25,-27 -44,-59 -57,-99 -15,-39 -22,-84 -22,-135 0,-50 8,-95 24,-134 15,-39 36,-72 62,-99 26,-27 57,-47 92,-61 35,-13 72,-21 111,-21 25,0 48,2 67,6 21,3 38,7 53,11 14,6 27,10 36,14 9,6 15,8 19,11l-24 70c-5,-4 -13,-8 -23,-12 -9,-3 -21,-8 -33,-12 -13,-4 -27,-7 -42,-10 -14,-3 -29,-3 -44,-3 -32,0 -61,5 -86,15 -26,12 -48,28 -65,49 -19,21 -33,46 -42,76 -9,30 -15,63 -15,100 0,36 5,70 14,99 7,30 20,55 37,77 17,21 38,37 63,48 26,12 55,18 89,18 39,0 71,-4 96,-13 26,-8 45,-15 58,-21l21 70c-3,2 -11,6 -21,10 -10,5 -24,9 -39,13 -16,4 -34,8 -55,10 -21,4 -44,5 -68,5l0 0zm239 -316c0,-51 7,-97 23,-136 15,-40 36,-73 62,-99 27,-27 58,-46 93,-60 35,-13 72,-20 112,-20 39,0 75,7 110,20 34,14 64,33 91,60 26,26 47,59 62,99 15,39 23,85 23,136 0,52 -8,98 -23,138 -15,38 -36,72 -62,98 -27,27 -57,46 -91,60 -35,13 -71,20 -110,20 -40,0 -77,-7 -112,-20 -35,-14 -66,-33 -93,-60 -26,-26 -47,-60 -62,-98 -16,-40 -23,-86 -23,-138zm88 0c0,37 5,71 14,101 10,30 23,54 40,75 17,22 38,37 62,49 25,11 53,17 84,17 31,0 58,-6 83,-17 24,-12 45,-27 62,-49 17,-21 31,-45 39,-75 10,-30 14,-64 14,-101 0,-36 -4,-69 -14,-99 -8,-30 -22,-55 -39,-76 -17,-21 -38,-37 -62,-49 -25,-11 -52,-16 -83,-16 -31,0 -59,5 -84,16 -24,12 -45,28 -62,49 -17,21 -30,46 -40,76 -9,30 -14,63 -14,99zm977 229l0 73 -364 0 0 -603 85 0 0 530 279 0 0 0zm516 73c-10,-25 -18,-51 -27,-76 -9,-26 -18,-51 -28,-78l-273 0 -54 154 -89 0c23,-63 45,-122 66,-177 20,-53 39,-105 60,-154 19,-48 38,-95 57,-140 19,-44 40,-88 60,-132l77 0c22,44 42,88 61,132 19,45 38,92 57,140 20,49 40,101 60,154 21,55 43,114 66,177l-93 0 0 0zm-78 -223c-20,-51 -37,-99 -56,-147 -18,-47 -38,-92 -57,-136 -20,44 -40,89 -58,136 -18,48 -36,96 -54,147l225 0 0 0zm407 164c88,0 132,-30 132,-91 0,-19 -3,-35 -11,-47 -8,-13 -19,-25 -32,-34 -13,-10 -29,-18 -46,-25 -17,-7 -35,-14 -55,-21 -22,-7 -43,-16 -62,-26 -20,-9 -37,-21 -51,-34 -15,-12 -27,-28 -35,-46 -9,-18 -13,-41 -13,-66 0,-53 19,-93 55,-123 36,-30 85,-45 149,-45 36,0 69,4 99,12 30,8 52,17 65,25l-26 69c-12,-7 -31,-15 -55,-22 -23,-7 -52,-10 -83,-10 -17,0 -32,1 -46,5 -14,3 -26,8 -36,15 -11,7 -19,16 -25,27 -6,11 -10,23 -10,38 0,16 4,29 10,41 6,11 16,21 27,29 12,9 25,16 41,23 15,7 32,14 51,21 26,10 49,21 71,32 22,9 41,22 57,37 16,15 28,31 37,52 9,20 13,44 13,72 0,53 -19,94 -58,122 -38,29 -93,43 -163,43 -24,0 -46,-2 -66,-5 -20,-3 -38,-7 -53,-11 -16,-5 -29,-9 -41,-14 -11,-5 -20,-9 -26,-13l25 -69c13,7 33,16 60,24 28,10 61,15 101,15l0 0zm685 -550c84,0 149,16 195,48 46,33 68,81 68,145 0,35 -6,64 -18,89 -13,24 -30,45 -54,60 -24,15 -52,27 -86,34 -34,6 -72,10 -114,10l-67 0 0 223 -85 0 0 -594c24,-6 50,-10 80,-12 30,-2 56,-3 81,-3l0 0zm7 74c-36,0 -64,1 -83,3l0 236 63 0c29,0 56,-1 79,-5 23,-4 43,-11 59,-19 16,-9 28,-22 37,-37 9,-16 13,-36 13,-60 0,-23 -4,-43 -14,-58 -9,-15 -21,-27 -36,-36 -16,-9 -34,-16 -54,-19 -20,-3 -41,-5 -64,-5zm337 233c0,-51 8,-97 24,-136 15,-40 36,-73 63,-99 26,-27 57,-46 92,-60 35,-13 72,-20 112,-20 39,0 75,7 110,20 35,14 65,33 91,60 26,26 47,59 63,99 15,39 23,85 23,136 0,52 -8,98 -23,138 -16,38 -37,72 -63,98 -26,27 -56,46 -91,60 -35,13 -71,20 -110,20 -40,0 -77,-7 -112,-20 -35,-14 -66,-33 -92,-60 -27,-26 -48,-60 -63,-98 -16,-40 -24,-86 -24,-138zm89 0c0,37 5,71 14,101 10,30 23,54 40,75 17,22 38,37 63,49 24,11 52,17 83,17 30,0 59,-6 82,-17 25,-12 46,-27 63,-49 18,-21 31,-45 40,-75 9,-30 14,-64 14,-101 0,-36 -5,-69 -14,-99 -9,-30 -22,-55 -40,-76 -17,-21 -38,-37 -63,-49 -23,-11 -52,-16 -82,-16 -31,0 -59,5 -83,16 -25,12 -46,28 -63,49 -17,21 -30,46 -40,76 -9,30 -14,63 -14,99zm994 -301l0 73 -190 0 0 530 -85 0 0 -530 -190 0 0 -73 465 0 0 0zm89 603l0 -603 368 0 0 73 -284 0 0 179 252 0 0 70 -252 0 0 209 306 0 0 72 -390 0 0 0zm860 -73l0 73 -363 0 0 -603 84 0 0 530 279 0 0 0zm951 87c-40,0 -74,-7 -103,-18 -29,-12 -53,-29 -72,-50 -18,-21 -32,-47 -41,-76 -9,-29 -13,-60 -13,-94l0 -379 84 0 0 370c0,60 13,104 40,131 26,28 62,41 105,41 21,0 40,-4 58,-10 18,-7 33,-17 46,-31 13,-14 23,-32 30,-54 7,-22 10,-47 10,-77l0 -370 85 0 0 379c0,34 -4,65 -14,94 -9,29 -23,55 -42,76 -18,21 -43,38 -71,50 -29,12 -63,18 -102,18l0 0zm788 -14c-13,-21 -28,-45 -44,-72 -16,-26 -35,-54 -53,-83 -20,-29 -40,-58 -60,-87 -21,-30 -42,-58 -62,-86 -20,-28 -40,-53 -59,-78 -19,-25 -37,-46 -53,-64l0 470 -83 0 0 -603 67 0c28,29 57,63 88,102 30,38 61,78 92,119 31,41 59,81 86,121 27,39 50,75 68,105l0 -447 83 0 0 603 -70 0 0 0zm196 -302c0,-51 7,-97 23,-136 15,-40 36,-73 63,-99 26,-27 57,-46 92,-60 36,-13 73,-20 112,-20 39,0 76,7 110,20 35,14 65,33 91,60 27,26 47,59 63,99 15,39 23,85 23,136 0,52 -8,98 -23,138 -16,38 -36,72 -63,98 -26,27 -56,46 -91,60 -34,13 -71,20 -110,20 -39,0 -76,-7 -112,-20 -35,-14 -66,-33 -92,-60 -27,-26 -48,-60 -63,-98 -16,-40 -23,-86 -23,-138zm88 0c0,37 6,71 14,101 10,30 23,54 40,75 18,22 38,37 63,49 24,11 53,17 83,17 31,0 59,-6 83,-17 24,-12 45,-27 62,-49 18,-21 31,-45 40,-75 9,-30 14,-64 14,-101 0,-36 -5,-69 -14,-99 -9,-30 -22,-55 -40,-76 -17,-21 -38,-37 -62,-49 -24,-11 -52,-16 -83,-16 -30,0 -59,5 -83,16 -25,12 -45,28 -63,49 -17,21 -30,46 -40,76 -8,30 -14,63 -14,99zm994 -301l0 73 -190 0 0 530 -84 0 0 -530 -191 0 0 -73 465 0 0 0z"/>
   <path class="fil0" d="M4551 1802l0 -590 355 0 0 71 -273 0 0 178 242 0 0 70 -242 0 0 271 -82 0 0 0zm590 -451c8,0 15,0 24,1 9,1 17,1 26,3 9,2 17,3 24,5 7,0 12,2 15,3l-14 69c-6,-2 -16,-5 -30,-8 -15,-4 -34,-4 -56,-4 -15,0 -30,0 -44,4 -14,3 -24,5 -28,6l0 372 -80 0 0 -424c19,-6 42,-13 70,-18 28,-7 59,-9 93,-9l0 0zm556 230c0,35 -6,67 -15,95 -11,28 -25,53 -43,73 -19,20 -41,36 -67,48 -25,10 -52,16 -82,16 -30,0 -59,-6 -84,-16 -26,-12 -48,-28 -66,-48 -19,-20 -33,-45 -43,-73 -10,-28 -15,-60 -15,-95 0,-35 5,-66 15,-95 10,-29 24,-53 43,-74 18,-20 40,-36 66,-47 25,-11 54,-16 84,-16 30,0 57,5 82,16 26,11 48,27 67,47 18,21 32,45 43,74 9,29 15,60 15,95zm-83 0c0,-50 -11,-89 -34,-119 -22,-29 -53,-43 -90,-43 -39,0 -70,14 -92,43 -22,30 -34,69 -34,119 0,50 12,89 34,119 22,29 53,43 92,43 37,0 68,-14 90,-43 23,-30 34,-69 34,-119zm194 -208c18,-5 42,-10 72,-15 30,-5 65,-7 104,-7 35,0 64,4 87,14 24,10 43,24 57,42 13,18 23,39 29,65 5,24 8,52 8,81l0 249 -79 0 0 -232c0,-26 -1,-50 -5,-69 -4,-20 -11,-35 -19,-47 -8,-12 -20,-20 -34,-26 -14,-5 -32,-8 -53,-8 -8,0 -17,0 -26,1 -9,0 -18,1 -26,2 -8,1 -16,2 -22,3 -6,1 -11,2 -14,2l0 374 -79 0 0 -429 0 0zm562 -13l168 0 0 66 -168 0 0 204c0,22 2,41 5,55 4,15 8,25 15,34 7,8 15,14 26,18 10,2 22,4 36,4 24,0 42,-2 57,-8 14,-5 24,-9 30,-11l15 65c-8,4 -21,10 -41,15 -20,6 -42,9 -68,9 -30,0 -55,-4 -75,-12 -19,-7 -35,-18 -47,-34 -12,-15 -20,-33 -25,-56 -5,-22 -7,-49 -7,-78l0 -395 79 -13 0 137zm189 150l209 0 0 74 -209 0 0 -74zm305 292l0 -590 359 0 0 71 -277 0 0 175 247 0 0 69 -247 0 0 205 299 0 0 70 -381 0 0 0zm480 -429c18,-5 42,-10 72,-15 30,-5 65,-7 104,-7 35,0 65,4 87,14 24,10 43,24 57,42 13,18 23,39 29,65 5,24 9,52 9,81l0 249 -80 0 0 -232c0,-26 -1,-50 -5,-69 -4,-20 -10,-35 -18,-47 -9,-12 -21,-20 -35,-26 -14,-5 -31,-8 -53,-8 -8,0 -16,0 -25,1 -10,0 -19,1 -27,2 -8,1 -15,2 -22,3 -6,1 -11,2 -14,2l0 374 -79 0 0 -429 0 0zm774 80c-10,-8 -23,-15 -42,-23 -18,-7 -38,-10 -60,-10 -22,0 -41,3 -58,12 -16,8 -29,19 -39,33 -10,15 -17,32 -22,52 -5,20 -7,41 -7,64 0,52 13,91 38,120 26,27 60,41 103,41 21,0 39,-1 53,-3 14,-1 26,-4 34,-6l0 -280 0 0zm0 -297l79 -14 0 647c-18,5 -41,10 -70,16 -28,4 -60,7 -97,7 -35,0 -65,-6 -92,-16 -27,-11 -51,-27 -70,-46 -19,-20 -34,-44 -45,-73 -10,-28 -15,-60 -15,-96 0,-35 4,-65 13,-94 9,-28 22,-53 39,-73 16,-20 37,-36 62,-47 25,-12 53,-17 85,-17 25,0 47,3 68,10 19,7 33,13 43,19l0 -223zm738 246c-23,77 -47,146 -72,211 -24,65 -48,127 -72,189l-83 0c-30,-87 -56,-178 -79,-275 -23,-96 -45,-201 -65,-315l87 0c8,44 16,89 24,133 9,45 18,88 27,129 9,42 18,81 27,119 9,39 19,73 28,106 23,-59 47,-125 73,-196 25,-71 49,-144 71,-221l71 0c22,77 46,150 73,221 26,71 50,137 73,196 9,-32 17,-66 27,-105 9,-38 18,-78 27,-119 8,-41 17,-85 26,-130 8,-44 17,-89 25,-133l83 0c-20,114 -42,219 -65,315 -23,97 -49,188 -78,275l-83 0c-25,-62 -49,-124 -73,-189 -24,-65 -48,-134 -72,-211l0 0zm420 180c0,-39 5,-73 17,-103 11,-29 26,-53 45,-73 19,-19 40,-33 65,-43 24,-10 49,-14 75,-14 59,0 105,19 136,56 32,37 48,93 48,169 0,3 0,8 0,13 0,5 0,11 -1,15l-302 0c2,46 16,81 39,105 23,24 59,35 109,35 28,0 51,-2 70,-7 19,-4 34,-10 44,-14l10 66c-10,5 -26,11 -50,17 -25,5 -52,8 -82,8 -39,0 -72,-6 -101,-17 -27,-12 -51,-28 -68,-49 -19,-20 -32,-44 -41,-72 -9,-28 -13,-59 -13,-92l0 0zm303 -44c1,-36 -8,-65 -26,-88 -19,-23 -44,-34 -76,-34 -19,0 -35,4 -49,11 -14,7 -25,15 -35,27 -10,11 -17,25 -22,40 -6,14 -10,29 -11,45l219 0 0 -1zm276 -159c10,-6 24,-12 44,-19 19,-7 41,-10 67,-10 32,0 60,5 85,17 24,11 45,27 62,47 17,20 30,45 39,73 9,29 13,59 13,94 0,36 -5,68 -16,96 -10,29 -25,53 -45,73 -18,19 -42,35 -69,46 -27,10 -58,16 -92,16 -37,0 -70,-3 -98,-7 -28,-6 -51,-11 -69,-16l0 -633 79 -14 0 237zm0 354c8,2 19,5 33,6 15,2 33,3 54,3 43,0 77,-14 102,-41 26,-29 38,-68 38,-120 0,-23 -1,-44 -6,-64 -4,-20 -12,-37 -22,-52 -10,-14 -24,-25 -40,-33 -16,-9 -36,-12 -58,-12 -22,0 -41,3 -60,10 -17,8 -31,15 -41,23l0 280 0 0zm1107 -226c0,51 -8,95 -24,133 -16,38 -39,69 -67,93 -29,25 -63,43 -104,56 -40,12 -84,18 -133,18 -24,0 -49,-1 -78,-3 -29,-2 -55,-6 -78,-12l0 -571c23,-5 49,-9 78,-11 29,-2 54,-3 78,-3 49,0 93,5 133,18 41,12 75,31 104,55 28,25 51,56 67,94 16,38 24,82 24,133l0 0zm-321 228c79,0 137,-20 176,-60 38,-40 57,-96 57,-168 0,-72 -19,-128 -57,-168 -39,-40 -97,-60 -176,-60 -23,0 -41,0 -54,1 -13,0 -22,1 -26,1l0 451c4,0 13,1 26,2 13,0 31,1 54,1l0 0zm413 -153c0,-39 6,-73 17,-103 12,-29 27,-53 45,-73 20,-19 41,-33 65,-43 24,-10 50,-14 75,-14 59,0 105,19 137,56 32,37 48,93 48,169 0,3 0,8 0,13 0,5 0,11 -1,15l-303 0c3,46 17,81 40,105 23,24 59,35 108,35 29,0 52,-2 71,-7 18,-4 33,-10 43,-14l11 66c-10,5 -27,11 -51,17 -24,5 -52,8 -82,8 -38,0 -72,-6 -100,-17 -27,-12 -51,-28 -69,-49 -18,-20 -31,-44 -40,-72 -9,-28 -14,-59 -14,-92l0 0zm304 -44c1,-36 -8,-65 -27,-88 -18,-23 -44,-34 -76,-34 -18,0 -34,4 -48,11 -14,7 -26,15 -35,27 -10,11 -17,25 -22,40 -7,14 -10,29 -12,45l220 0 0 -1zm299 207c33,0 57,-5 72,-13 16,-8 24,-22 24,-41 0,-19 -8,-34 -23,-46 -15,-11 -41,-24 -76,-38 -17,-7 -34,-14 -49,-21 -16,-7 -29,-15 -40,-25 -12,-9 -20,-21 -28,-35 -7,-13 -10,-30 -10,-50 0,-39 15,-70 43,-93 29,-23 69,-34 119,-34 12,0 25,0 37,2 12,2 24,3 35,5 11,2 21,4 29,6 7,3 14,5 19,6l-15 68c-8,-4 -22,-9 -40,-14 -18,-4 -39,-7 -65,-7 -23,0 -41,4 -58,13 -17,9 -25,22 -25,42 0,9 2,17 5,25 4,7 10,14 18,20 7,6 17,11 28,16 12,6 25,11 41,16 21,8 40,16 56,24 16,8 30,17 43,27 11,10 20,22 26,37 6,15 10,32 10,53 0,41 -16,72 -46,93 -30,20 -73,31 -130,31 -38,0 -69,-3 -91,-10 -22,-6 -37,-11 -45,-15l14 -68c9,4 24,9 43,16 20,6 47,10 79,10l0 0zm356 57l-80 0 0 -442 80 0 0 442zm-40 -522c-14,0 -27,-5 -36,-14 -10,-10 -15,-22 -15,-38 0,-16 5,-29 15,-38 9,-9 22,-14 36,-14 14,0 25,5 36,14 10,9 15,22 15,38 0,16 -5,28 -15,38 -11,9 -22,14 -36,14zm453 478c-7,4 -20,10 -40,17 -19,7 -42,10 -69,10 -26,0 -51,-3 -74,-12 -24,-9 -45,-22 -62,-40 -18,-17 -32,-39 -42,-67 -10,-26 -15,-58 -15,-95 0,-32 5,-62 15,-88 9,-27 23,-50 42,-71 18,-19 40,-34 67,-45 27,-11 57,-16 91,-16 36,0 68,2 96,8 27,5 50,9 69,15l0 394c0,68 -17,117 -53,148 -35,31 -88,46 -160,46 -27,0 -54,-2 -78,-7 -25,-5 -46,-10 -65,-16l15 -69c16,6 35,11 58,17 23,4 47,7 72,7 47,0 81,-10 102,-29 20,-18 31,-48 31,-89l0 -18 0 0zm-1 -329c-8,-2 -19,-4 -32,-6 -13,-2 -31,-3 -54,-3 -43,0 -75,14 -98,42 -23,27 -35,64 -35,110 0,26 4,48 10,66 7,18 15,33 27,45 11,12 23,20 37,26 15,6 30,8 45,8 22,0 41,-2 59,-8 17,-7 30,-13 41,-21l0 -259 0 0zm215 -56c19,-5 42,-10 72,-15 30,-5 65,-7 104,-7 36,0 65,4 88,14 22,10 41,24 55,42 14,18 24,39 29,65 6,24 9,52 9,81l0 249 -79 0 0 -232c0,-26 -2,-50 -6,-69 -3,-20 -9,-35 -18,-47 -8,-12 -20,-20 -34,-26 -14,-5 -31,-8 -53,-8 -8,0 -17,0 -26,1 -9,0 -18,1 -26,2 -8,1 -15,2 -22,3 -7,1 -11,2 -14,2l0 374 -79 0 0 -429 0 0zm464 209c0,-39 5,-73 16,-103 12,-29 27,-53 45,-73 19,-19 41,-33 65,-43 24,-10 49,-14 75,-14 60,0 105,19 137,56 32,37 48,93 48,169 0,3 0,8 0,13 0,5 -1,11 -1,15l-303 0c3,46 16,81 40,105 23,24 59,35 109,35 28,0 51,-2 70,-7 19,-4 33,-10 42,-14l12 66c-10,5 -27,11 -50,17 -25,5 -52,8 -83,8 -38,0 -72,-6 -100,-17 -28,-12 -51,-28 -69,-49 -18,-20 -31,-44 -40,-72 -9,-28 -13,-59 -13,-92l0 0zm303 -44c1,-36 -8,-65 -27,-88 -18,-23 -44,-34 -76,-34 -18,0 -34,4 -48,11 -14,7 -25,15 -35,27 -10,11 -18,25 -23,40 -5,14 -9,29 -11,45l220 0 0 -1zm359 -187c7,0 15,0 24,1 9,1 17,1 26,3 9,2 17,3 24,5 7,0 12,2 15,3l-14 69c-6,-2 -16,-5 -31,-8 -15,-4 -33,-4 -55,-4 -15,0 -30,0 -44,4 -14,3 -24,5 -28,6l0 372 -80 0 0 -424c19,-6 42,-13 70,-18 27,-7 59,-9 93,-9l0 0z"/>
   <path class="fil1" d="M1264 38c-703,16 -1187,774 -1169,1505 8,325 208,620 503,613 375,-8 561,-395 1003,-405 514,-12 851,423 1372,411 704,-16 1188,-775 1170,-1505 -8,-325 -208,-621 -503,-614 -412,10 -462,384 -1035,397 -510,13 -822,-415 -1341,-402l0 0z"/>
  </g>
 </g>
</svg>
