<?xml version="1.0" encoding="UTF-8"?>
<!DOCTYPE svg PUBLIC "-//W3C//DTD SVG 1.1//EN" "http://www.w3.org/Graphics/SVG/1.1/DTD/svg11.dtd">
<!-- Creator: CorelDRAW X8 -->
<svg xmlns="http://www.w3.org/2000/svg" xml:space="preserve" width="50mm" height="50mm" version="1.1" style="shape-rendering:geometricPrecision; text-rendering:geometricPrecision; image-rendering:optimizeQuality; fill-rule:evenodd; clip-rule:evenodd"
viewBox="0 0 5000 5000"
 xmlns:xlink="http://www.w3.org/1999/xlink">
 <defs>
  <style type="text/css">
   <![CDATA[
    .fil1 {fill:#FCFCFC}
    .fil0 {fill:url(#id0)}
   ]]>
  </style>
  <linearGradient id="id0" gradientUnits="userSpaceOnUse" x1="4116.12" y1="4317.05" x2="875.43" y2="550.36">
   <stop offset="0" style="stop-opacity:1; stop-color:#A12BFF"/>
   <stop offset="0.419608" style="stop-opacity:1; stop-color:#6877F1"/>
   <stop offset="1" style="stop-opacity:1; stop-color:#2EC3E3"/>
  </linearGradient>
 </defs>
 <g id="Capa_x0020_1">
  <metadata id="CorelCorpID_0Corel-Layer"/>
  <path class="fil0" d="M426 4777c45,-15 89,-28 132,-41l536 -174c88,-31 80,3 236,87 294,158 702,301 1109,301 395,0 684,-53 1033,-203 214,-92 347,-178 523,-310 1472,-1102 1212,-3616 -730,-4263 -436,-146 -939,-166 -1384,-45 -1516,414 -2365,2274 -1475,3638 17,25 107,160 108,170 17,182 -491,975 -88,840z"/>
  <path class="fil1" d="M1098 1808l0 99c0,330 334,781 530,1017 58,70 177,206 251,268l133 123c100,86 343,252 469,306 192,81 580,249 799,249 247,0 572,-166 645,-336 39,-89 60,-202 60,-307 0,-68 -25,-79 -73,-104 -94,-48 -528,-259 -591,-276 -119,-30 -140,81 -278,234 -128,143 -83,171 -314,70 -307,-133 -579,-363 -765,-630 -27,-38 -123,-170 -131,-215 -11,-53 40,-97 96,-158 58,-65 167,-191 132,-293l-258 -608c-55,-85 -90,-66 -247,-66 -87,0 -147,28 -194,70 -31,28 -98,107 -126,146 -67,99 -138,260 -138,411z"/>
 </g>
</svg>
