<?xml version="1.0" encoding="UTF-8"?>
<!DOCTYPE svg PUBLIC "-//W3C//DTD SVG 1.1//EN" "http://www.w3.org/Graphics/SVG/1.1/DTD/svg11.dtd">
<!-- Creator: CorelDRAW X8 -->
<svg xmlns="http://www.w3.org/2000/svg" xml:space="preserve" width="10mm" height="10mm" version="1.1" style="shape-rendering:geometricPrecision; text-rendering:geometricPrecision; image-rendering:optimizeQuality; fill-rule:evenodd; clip-rule:evenodd"
viewBox="0 0 1000 1000"
 xmlns:xlink="http://www.w3.org/1999/xlink">
 <defs>
  <style type="text/css">
   <![CDATA[
    .fil0 {fill:white}
   ]]>
  </style>
 </defs>
 <g id="Capa_x0020_1">
  <metadata id="CorelCorpID_0Corel-Layer"/>
  <g id="_2764084426688">
   <path class="fil0" d="M601 16c-30,4 -53,25 -57,55 -2,20 0,187 0,222 0,32 -3,80 0,111 3,29 27,52 55,56 14,2 203,0 222,0 31,0 83,3 111,0 29,-4 52,-27 56,-56 2,-21 0,-186 0,-222 0,-31 3,-83 -1,-111 -3,-29 -26,-51 -56,-55l-330 0zm69 318l33 1 1 -182 -34 0 0 181zm158 -124c-16,-6 -36,-21 -67,1 -15,11 -25,33 -25,61 0,45 28,72 66,65 17,-3 20,-12 29,-15l1 12 29 1 0 -197 -32 0 -1 72z"/>
   <path class="fil0" d="M828 300l0 -65c-12,-5 -26,-16 -43,-5 -21,13 -22,68 2,79 18,9 32,-3 41,-9z"/>
   <path class="fil0" d="M63 18c-28,6 -50,29 -52,61 -1,36 0,75 0,111 0,34 -2,203 2,221 6,27 30,49 61,50 35,2 75,0 111,0 32,0 202,2 220,-1 27,-6 49,-29 51,-60 2,-36 0,-75 0,-111 0,-34 2,-202 -1,-221 -6,-27 -29,-50 -60,-51 -35,-2 -76,-1 -112,-1 -32,0 -203,-2 -220,2zm47 300l29 0 1 -52c24,0 46,-1 61,-14 27,-22 32,-79 -19,-92 -14,-3 -57,-4 -73,-2 -1,14 -1,152 1,160zm140 -29l0 27c24,4 52,8 76,-1 19,-8 35,-33 18,-55 -14,-18 -47,-16 -58,-28 -11,-10 2,-19 15,-19 16,-1 26,3 40,5 0,-27 4,-24 -16,-27 -6,0 -14,-1 -21,-1 -13,0 -25,2 -35,8 -21,10 -28,40 -8,56 19,15 56,13 56,30 0,25 -55,8 -67,5z"/>
   <path class="fil0" d="M140 240c25,6 47,-4 48,-27 2,-27 -23,-34 -48,-30l0 57z"/>
   <path class="fil0" d="M335 539c-30,3 -53,26 -57,55 -2,21 0,187 0,222 0,32 -3,81 0,111 4,28 27,52 56,56 20,2 186,0 222,0 31,0 82,3 111,-1 28,-3 51,-26 55,-55 2,-21 0,-187 0,-222 0,-31 3,-82 0,-111 -4,-29 -27,-51 -56,-55 -13,-2 -203,-1 -221,-1 -32,0 -82,-2 -110,1zm248 131c-24,8 -11,43 16,34 21,-8 12,-44 -16,-34zm-10 183l35 0 0 -132 -35 0 0 132zm-184 0l40 0c2,-7 9,-31 13,-36l63 0c4,8 10,27 12,36l39 0c-2,-11 -12,-33 -16,-45 -6,-15 -11,-30 -17,-45l-29 -79c-5,-12 -1,-9 -38,-9l-67 178z"/>
   <path class="fil0" d="M452 786l42 1 -20 -65c-5,6 -21,55 -22,64z"/>
  </g>
 </g>
</svg>
