<?xml version="1.0" encoding="UTF-8"?>
<!DOCTYPE svg PUBLIC "-//W3C//DTD SVG 1.1//EN" "http://www.w3.org/Graphics/SVG/1.1/DTD/svg11.dtd">
<!-- Creator: CorelDRAW X8 -->
<svg xmlns="http://www.w3.org/2000/svg" xml:space="preserve" width="10mm" height="10mm" version="1.1" style="shape-rendering:geometricPrecision; text-rendering:geometricPrecision; image-rendering:optimizeQuality; fill-rule:evenodd; clip-rule:evenodd"
viewBox="0 0 1000 1000"
 xmlns:xlink="http://www.w3.org/1999/xlink">
 <defs>
  <style type="text/css">
   <![CDATA[
    .fil0 {fill:white}
   ]]>
  </style>
 </defs>
 <g id="Capa_x0020_1">
  <metadata id="CorelCorpID_0Corel-Layer"/>
  <g id="_2763938448832">
   <path class="fil0" d="M660 949c2,-44 14,-153 19,-201 3,-33 6,-67 9,-99 2,-30 10,-75 8,-105l-392 0c0,24 30,354 33,388 2,21 -2,15 30,23l127 31c22,6 22,5 44,-2l122 -35zm-240 -117l-61 -5 4 44c24,1 91,12 102,10l1 -242 -46 -1 0 194zm92 -51l60 1c2,13 6,52 -8,55 -11,2 -38,-2 -48,2 -3,6 -2,14 -3,20 0,8 0,15 1,22l104 0 7 -145 -67 0 0 -52c19,0 52,4 66,-2 5,-10 7,-29 6,-43l-118 -1 0 143z"/>
   <path class="fil0" d="M599 417c23,3 58,13 81,19 25,7 56,16 81,21 13,2 137,-34 159,-41l37 -403 -393 -1 35 405zm94 -88l-16 -2 -5 -43 -49 0 6 82c30,5 121,29 135,29 11,1 122,-32 127,-38 6,-7 14,-147 13,-166 -30,0 -222,2 -234,-1l-3 -65 236 -1 7 -50 -298 0 11 164c9,6 214,2 226,3l-3 79c-11,5 -62,21 -74,24 -11,2 -65,-11 -79,-15z"/>
   <path class="fil0" d="M79 414c21,5 150,43 160,41l160 -41 38 -403 -394 -1 36 404zm155 -263c-8,7 -120,36 -126,38l6 49 196 1 -7 66c-3,3 -1,2 -6,4l-55 11c-19,4 -44,-5 -63,-10l-8 -37 -55 -1 10 78c10,6 103,23 111,22 35,-4 77,-16 113,-23l15 -160 -77 -1c24,-8 57,-21 82,-26l7 -61 -278 0c-1,8 2,31 4,41 1,13 1,9 37,9 31,0 63,0 94,0z"/>
  </g>
 </g>
</svg>
