<?xml version="1.0" encoding="UTF-8"?>
<!DOCTYPE svg PUBLIC "-//W3C//DTD SVG 1.1//EN" "http://www.w3.org/Graphics/SVG/1.1/DTD/svg11.dtd">
<!-- Creator: CorelDRAW X8 -->
<svg xmlns="http://www.w3.org/2000/svg" xml:space="preserve" width="10mm" height="10mm" version="1.1" style="shape-rendering:geometricPrecision; text-rendering:geometricPrecision; image-rendering:optimizeQuality; fill-rule:evenodd; clip-rule:evenodd"
viewBox="0 0 1000 1000"
 xmlns:xlink="http://www.w3.org/1999/xlink">
 <defs>
  <style type="text/css">
   <![CDATA[
    .fil0 {fill:white}
   ]]>
  </style>
 </defs>
 <g id="Capa_x0020_1">
  <metadata id="CorelCorpID_0Corel-Layer"/>
  <path class="fil0" d="M123 231c0,78 -6,235 -107,244l0 50c46,4 71,39 85,77 20,53 22,110 22,167 0,37 1,58 21,81 31,36 54,36 97,36l545 0c51,0 92,-48 92,-98l-1 -40c0,-91 19,-216 107,-223l0 -50c-103,-10 -108,-166 -106,-262 1,-51 -41,-99 -92,-99l-572 0c-15,0 -29,5 -41,11 -13,7 -20,15 -28,24 -23,26 -22,52 -22,82zm229 136l0 339 168 0c39,0 76,-8 101,-27 13,-9 23,-20 31,-35 20,-39 18,-96 -16,-127 -6,-5 -19,-14 -29,-19 -22,-10 -25,-6 -37,-10 20,-8 29,-8 46,-25 56,-54 29,-169 -91,-169l-173 0 0 73z"/>
  <path class="fil0" d="M419 652c32,1 65,1 97,0 61,-2 81,-35 82,-66 0,-72 -79,-66 -131,-66 -16,0 -32,0 -48,0l0 132z"/>
  <path class="fil0" d="M418 468l74 1c48,0 86,-18 86,-65 0,-33 -23,-50 -53,-55 -17,-3 -90,-3 -107,-1l0 120z"/>
 </g>
</svg>
