<?xml version="1.0" encoding="UTF-8"?>
<!DOCTYPE svg PUBLIC "-//W3C//DTD SVG 1.1//EN" "http://www.w3.org/Graphics/SVG/1.1/DTD/svg11.dtd">
<!-- Creator: CorelDRAW X8 -->
<svg xmlns="http://www.w3.org/2000/svg" xml:space="preserve" width="10mm" height="10mm" version="1.1" style="shape-rendering:geometricPrecision; text-rendering:geometricPrecision; image-rendering:optimizeQuality; fill-rule:evenodd; clip-rule:evenodd"
viewBox="0 0 1000 1000"
 xmlns:xlink="http://www.w3.org/1999/xlink">
 <defs>
  <style type="text/css">
   <![CDATA[
    .fil0 {fill:white}
   ]]>
  </style>
 </defs>
 <g id="Capa_x0020_1">
  <metadata id="CorelCorpID_0Corel-Layer"/>
  <path class="fil0" d="M569 500c-3,6 -42,26 -51,31l-131 76c-8,4 -23,10 -27,17l0 139c1,17 7,23 19,29 40,23 79,46 119,69 40,22 80,44 118,67 30,18 32,9 66,-10l297 -171c11,-9 10,-18 10,-35 0,-37 2,-269 -1,-280 -3,-11 -14,-20 -28,-19 -10,1 -50,26 -61,32 -24,14 -48,22 -49,44 -2,31 -1,101 -1,140 0,36 -1,34 -38,55l-148 85c-29,16 -30,8 -66,-12l-59 -34c-8,-7 -14,-19 -7,-33 5,-11 14,-14 26,-21 39,-23 80,-45 119,-68 33,-20 34,-13 34,-60l0 -376c0,-28 7,-66 -22,-72 -15,-3 -45,17 -63,28 -78,46 -159,90 -237,136 -35,20 -35,11 -66,-6 -80,-45 -158,-92 -238,-137 -21,-11 -45,-32 -63,-15 -15,13 -10,60 -10,84l-1 374c0,17 3,25 14,32l91 51c14,5 26,-2 32,-10 6,-11 4,-30 4,-44l0 -186c0,-29 -6,-66 26,-68 13,0 50,24 62,31 19,11 39,23 59,34 70,40 52,43 125,0l89 -51c9,-6 21,-15 35,-13 30,5 22,44 22,72 0,32 0,63 0,95z"/>
  <path class="fil0" d="M955 94c-12,4 -42,24 -53,31 -9,6 -18,11 -27,16 -10,6 -18,9 -21,22 -3,13 -1,66 -1,84 0,13 -2,27 6,38 5,7 16,14 30,10 9,-3 42,-25 52,-31 61,-36 48,-21 48,-121 0,-13 2,-29 -5,-38 -5,-7 -16,-15 -29,-11z"/>
 </g>
</svg>
