<?xml version="1.0" encoding="UTF-8"?>
<!DOCTYPE svg PUBLIC "-//W3C//DTD SVG 1.1//EN" "http://www.w3.org/Graphics/SVG/1.1/DTD/svg11.dtd">
<!-- Creator: CorelDRAW X8 -->
<svg xmlns="http://www.w3.org/2000/svg" xml:space="preserve" width="10mm" height="10mm" version="1.1" style="shape-rendering:geometricPrecision; text-rendering:geometricPrecision; image-rendering:optimizeQuality; fill-rule:evenodd; clip-rule:evenodd"
viewBox="0 0 1000 1000"
 xmlns:xlink="http://www.w3.org/1999/xlink">
 <defs>
  <style type="text/css">
   <![CDATA[
    .fil0 {fill:white}
   ]]>
  </style>
 </defs>
 <g id="Capa_x0020_1">
  <metadata id="CorelCorpID_0Corel-Layer"/>
  <g id="_2764020091392">
   <path class="fil0" d="M499 10c-16,2 -27,10 -40,18 -12,7 -24,14 -36,21l-328 189c-8,5 -10,6 -16,12 -4,6 -7,13 -8,21 -2,36 0,79 0,115 0,28 -1,333 1,345 2,20 13,25 25,32l364 210c42,25 41,21 81,-1 36,-20 73,-44 109,-63 25,-14 49,-28 73,-42l182 -105c12,-7 23,-16 23,-34 1,-133 0,-269 0,-403 0,-17 1,-40 0,-57 -1,-17 -14,-24 -26,-31 -12,-7 -24,-15 -36,-21 -48,-26 -98,-58 -146,-84 -11,-7 -25,-14 -36,-21 -18,-12 -52,-30 -73,-42l-72 -42c-11,-6 -28,-18 -41,-17zm293 511l0 15c4,1 11,6 13,6 1,0 5,-2 6,-3 2,-1 5,-2 6,-4l0 -14c-3,-1 -8,-6 -12,-7 -3,2 -11,6 -13,7zm59 66c-1,-4 -3,-4 -8,-7 -3,-2 -6,-4 -9,-5l-55 -32 0 -29c1,-1 23,-14 25,-14 3,0 23,12 25,14 1,8 -1,18 2,25 6,2 15,-7 25,-12 5,-3 8,-4 12,-7 5,-4 10,-4 11,-8 1,-3 1,-14 1,-18 0,-15 -3,-11 -31,-28l-36 -21c-12,-7 -18,2 -39,13l-25 15c-26,16 -21,2 -21,58 0,9 -1,30 1,38 1,5 0,4 3,6 2,1 5,2 7,3 4,3 9,5 13,8 8,4 16,9 24,13 25,14 24,20 39,11 3,-3 8,-5 12,-7 4,-3 8,-5 12,-7 10,-6 10,-3 12,-9zm-223 -243c-1,19 2,103 -2,110 -9,1 -17,-16 -29,-10 -2,1 -4,3 -6,4l-60 34c-6,4 -5,8 -5,16l0 67c0,11 5,11 12,15l54 32c15,8 12,3 38,-11 12,-6 24,-13 36,-21 16,-8 12,-10 12,-43 0,-27 1,-154 -1,-170 -15,-6 -43,-26 -49,-23zm-506 253c5,2 34,-17 41,-21 5,-2 6,-2 7,-6 2,-7 0,-42 1,-52 0,-8 2,-7 13,-13 7,-4 10,-8 19,-3 3,2 5,3 8,5 2,1 2,2 4,2l3 2c6,4 3,29 3,36 0,36 -3,20 33,43 16,11 18,10 18,-4 -1,-25 0,-51 0,-76 0,-6 0,-12 0,-18 0,-8 0,-8 -6,-12 -8,-5 -16,-10 -24,-14l-36 -21c-4,-2 -8,-5 -14,-3 -7,2 -17,10 -24,14 -5,2 -46,25 -47,27 -2,4 -4,107 1,114zm201 -96l1 68c1,5 4,6 8,8l64 37c7,2 34,-16 44,-22 7,-4 14,-8 21,-12 14,-8 14,-5 14,-25l0 -53c0,-17 3,-16 -9,-23 -10,-6 -62,-37 -66,-37 -5,0 -54,29 -65,35 -13,8 -12,6 -12,24z"/>
   <path class="fil0" d="M576 514l1 31c6,1 21,13 25,13 3,0 9,-5 12,-7 5,-2 9,-4 13,-7l0 -29c-7,-3 -17,-11 -25,-14 -7,3 -21,12 -26,13z"/>
   <path class="fil0" d="M373 512c0,4 -1,22 0,25 1,4 12,10 15,12 9,4 9,5 18,0 4,-2 14,-6 16,-11 1,-2 1,-22 0,-25 -1,-3 -11,-9 -15,-11 -9,-5 -9,-6 -17,-1 -5,3 -12,7 -17,11z"/>
  </g>
 </g>
</svg>
