<?xml version="1.0" encoding="UTF-8"?>
<!DOCTYPE svg PUBLIC "-//W3C//DTD SVG 1.1//EN" "http://www.w3.org/Graphics/SVG/1.1/DTD/svg11.dtd">
<!-- Creator: CorelDRAW X8 -->
<svg xmlns="http://www.w3.org/2000/svg" xml:space="preserve" width="10mm" height="10mm" version="1.1" style="shape-rendering:geometricPrecision; text-rendering:geometricPrecision; image-rendering:optimizeQuality; fill-rule:evenodd; clip-rule:evenodd"
viewBox="0 0 1000 1000"
 xmlns:xlink="http://www.w3.org/1999/xlink">
 <defs>
  <style type="text/css">
   <![CDATA[
    .fil0 {fill:white}
   ]]>
  </style>
 </defs>
 <g id="Capa_x0020_1">
  <metadata id="CorelCorpID_0Corel-Layer"/>
  <g id="_2764020114112">
   <path class="fil0" d="M685 922l17 0c9,-4 36,-2 59,-33 38,-50 35,-132 24,-192l-7 -39c33,-7 95,-35 123,-55 34,-24 74,-57 73,-104 0,-75 -104,-125 -165,-146l-34 -11c6,-27 11,-50 14,-78 4,-49 2,-114 -28,-153 -25,-32 -49,-29 -59,-33l-21 0 -15 3c-44,9 -94,40 -128,68l-28 25c-3,3 -7,7 -10,9 -2,-4 -29,-26 -33,-30 -18,-14 -43,-32 -63,-43 -89,-51 -179,-48 -193,80 -3,27 -2,54 1,81 1,12 3,24 6,36 2,10 6,25 7,34 -4,2 -28,9 -34,11 -11,4 -22,8 -32,13 -51,22 -135,68 -133,136 2,74 104,127 165,149 10,3 24,7 34,11 -11,47 -20,99 -14,150 5,41 21,89 62,105 47,16 99,-6 133,-25 18,-10 36,-22 51,-33 4,-4 8,-7 11,-10 4,-3 8,-6 12,-9l22 -20 2 2c1,1 2,2 3,3 2,1 3,2 5,4 3,3 6,5 9,8 3,3 6,6 9,9 30,25 62,47 99,62 32,14 49,13 56,15zm-240 -614c47,-1 63,-1 111,0 -2,-4 -10,-13 -13,-17l-42 -50c-2,2 -6,5 -8,8 -2,3 -5,5 -7,8l-7 8c-3,3 -5,5 -7,8 -4,6 -24,29 -27,35zm250 144c3,-13 24,-54 30,-81 -27,-6 -58,-13 -86,-15 2,5 11,18 14,23 14,23 26,44 38,67 1,1 1,2 2,3l2 3zm-419 -82c1,10 26,77 30,82l55 -96c-14,1 -30,4 -44,6 -14,3 -28,6 -41,8zm226 390c9,-8 50,-59 55,-68 -38,1 -74,1 -112,0 4,8 27,35 34,43 2,2 2,3 4,5l19 20zm-227 -128c28,5 58,11 87,13l-56 -96c-6,7 -29,75 -31,83zm364 13c35,-3 57,-10 88,-15 -2,-11 -27,-77 -32,-83 -3,3 -11,20 -14,25l-42 73zm127 -26c16,-3 39,-12 53,-18 37,-16 114,-56 115,-101 0,-46 -79,-85 -116,-100 -11,-5 -42,-17 -53,-19l-41 105c-8,18 -7,11 8,43 7,17 31,75 34,90zm-237 -407c14,12 69,83 80,100 28,2 68,8 96,13 9,2 23,6 31,7 3,-20 8,-37 11,-58 5,-44 9,-143 -42,-154 -44,-10 -120,40 -150,68 -5,5 -23,19 -26,24zm-264 119c11,-1 22,-4 33,-6 12,-2 23,-5 35,-6l54 -7c6,0 6,-2 11,-10 12,-16 23,-31 36,-46 6,-7 31,-38 38,-43 -3,-5 -20,-20 -26,-25 -34,-29 -105,-76 -150,-68 -38,7 -45,58 -46,90 -2,45 6,80 15,121zm265 458c17,19 55,47 75,60 21,14 68,39 101,31 16,-4 27,-20 34,-34 7,-15 9,-38 11,-57 1,-21 0,-42 -2,-63 -2,-14 -7,-46 -11,-57 -47,9 -76,15 -124,19 -7,1 -4,1 -11,10 -28,39 -40,53 -68,86 -2,2 -3,3 -5,5zm-57 1c-1,-2 -18,-21 -21,-24l-10 -12c-12,-14 -29,-36 -40,-51 -15,-20 -3,-12 -43,-17l-64 -9c-9,-2 -22,-6 -31,-6 -1,8 -4,19 -6,27 -2,10 -4,20 -5,29 -5,40 -8,110 21,141 6,7 11,9 23,11 23,5 37,0 56,-8 30,-12 60,-30 85,-50l35 -31zm-238 -169c4,-6 8,-22 11,-30 7,-23 19,-53 29,-75 9,-20 10,-9 -5,-43 -4,-10 -8,-20 -12,-30 -4,-10 -8,-20 -11,-31 -3,-9 -9,-22 -11,-31 -10,1 -42,13 -54,18 -33,12 -65,30 -90,54 -8,7 -28,29 -26,47 2,13 12,34 21,42 2,2 3,3 4,5 4,4 16,13 21,16 36,27 77,46 123,58zm352 29c5,-6 40,-65 45,-73 4,-7 40,-72 41,-77 1,-6 -53,-98 -63,-114l-23 -35c-67,-3 -104,-5 -169,-1 -3,0 -3,0 -5,2 -2,1 -9,13 -11,15 -13,21 -26,42 -39,65 -4,7 -35,64 -35,68 -1,5 30,60 35,68 12,21 35,60 49,80 4,4 17,3 23,3 53,3 98,1 152,-1z"/>
   <path class="fil0" d="M492 415c-44,4 -81,43 -76,92 3,44 42,81 92,77 44,-4 81,-43 76,-92 -3,-44 -42,-82 -92,-77z"/>
  </g>
 </g>
</svg>
