<?xml version="1.0" encoding="UTF-8"?>
<!DOCTYPE svg PUBLIC "-//W3C//DTD SVG 1.1//EN" "http://www.w3.org/Graphics/SVG/1.1/DTD/svg11.dtd">
<!-- Creator: CorelDRAW X8 -->
<svg xmlns="http://www.w3.org/2000/svg" xml:space="preserve" width="10mm" height="10mm" version="1.1" style="shape-rendering:geometricPrecision; text-rendering:geometricPrecision; image-rendering:optimizeQuality; fill-rule:evenodd; clip-rule:evenodd"
viewBox="0 0 1000 1000"
 xmlns:xlink="http://www.w3.org/1999/xlink">
 <defs>
  <style type="text/css">
   <![CDATA[
    .fil0 {fill:white}
   ]]>
  </style>
 </defs>
 <g id="Capa_x0020_1">
  <metadata id="CorelCorpID_0Corel-Layer"/>
  <g id="_2764080591616">
   <path class="fil0" d="M527 205l-59 0c-20,8 -53,10 -80,21 -41,16 -85,58 -105,97 -12,25 -21,46 -28,75 25,-24 40,-47 80,-64 37,-16 86,-13 119,5 29,15 78,70 116,103 117,101 378,83 420,-132 -13,8 -43,58 -108,70 -27,5 -57,1 -80,-9 -63,-27 -100,-114 -203,-150 -25,-10 -52,-9 -72,-16z"/>
   <path class="fil0" d="M10 690l19 -18c16,-14 27,-31 64,-45 130,-48 180,92 279,140 68,33 170,38 241,6 41,-17 63,-38 83,-65 21,-27 40,-62 48,-102l-11 9c-49,55 -123,84 -193,43 -30,-18 -53,-48 -75,-69 -13,-13 -23,-20 -39,-33 -77,-63 -198,-72 -289,-33 -58,24 -114,91 -127,167z"/>
  </g>
 </g>
</svg>
